<?xml version="1.0" encoding="utf-8"?>
<!-- Generator: Adobe Illustrator 22.0.1, SVG Export Plug-In . SVG Version: 6.00 Build 0)  -->
<svg version="1.1" xmlns="http://www.w3.org/2000/svg" xmlns:xlink="http://www.w3.org/1999/xlink" x="0px" y="0px"
	 viewBox="0 0 1300 1300" style="enable-background:new 0 0 1300 1300;" xml:space="preserve">
<style type="text/css">
	.st0{fill:#FFFFFF;}
	.st1{fill:none;}
	.st2{fill:#FF4D5E;}
</style>
<g id="Layer_3">
	<path class="st0" d="M146,595v22l70,104l66,58c0,0,28,17,36,17s32-5,32-5l27,6l58-12l9-32l15.3-2.7L682,740l207-6l32,20l56,9l18-13
		l-1-19l9-32l-5.5-35.3c0,0,12.5-17.8,13.5-41.8s-13-56-31-75s-255-64-255-64l-32-10.5L614,483c0,0-432,3-432,6S146,595,146,595z"/>
	<path class="st0" d="M211.3,766l5.9,19.6l53.1-1L293,836l17,4.3c0,0,15-3,17.7-5c2.7-2,4-13.3,4-13.3l-35.3-47l-28.7,1.3l-8-17.3
		L211.3,766z"/>
	<polygon class="st0" points="975.7,650.7 1003.3,664 999.3,678.7 977.7,673.3 	"/>
</g>
<g id="Layer_4">
	<g>
		<path class="st1" d="M510.9,599.4l-1.9-4.3l-4-0.8l-2.3,3l-1.9,6.3l0.8,5.3l2.3,1.6l2.5-0.9l1.5-1.9l-1.4,2.9l-0.9,2.4l-1.3,1.5
			l-1.8-0.9l0.1-1.4l-3,1l0.9,4l2.5,1.5c0,0,4.3-1,4.3-1.4s2.4-4.1,2.4-4.1l0.8-4.1l0.9-5.9L510.9,599.4z"/>
		<path class="st1" d="M500.5,599.5l-1.4-4.5l-3.5-1.3l-3.3,2.9l-1.9,5.6l3.9-0.3l0.5-2.6l1.6,0.4l0.3,1.9l-1.5,3.3
			c0,0-3.5,3.3-4.6,4.3s-2.3,4-2.3,4l-0.5,3.8l9.1,0.6l1.1-4l-5.3-0.6c0,0,5.3-5.3,6.3-7.1S500.5,599.5,500.5,599.5z"/>
		<polygon class="st1" points="482.1,593.1 479.4,600.1 478,593 474,592.9 476.6,605.1 474.1,609 471,614 470.4,616.9 474,617.1 
			477.5,609.4 479.1,617.1 482.6,617.1 480.8,604.4 486.1,593.1 		"/>
		<path class="st1" d="M518.5,596c-4.1-0.4-6.4,5.9-6.8,12.1c-0.4,6.4-1.5,11.4,3,11.4c2.9,0,6.2-6,6.8-12.3
			C522,601.1,521.4,596.3,518.5,596z"/>
		<path class="st1" d="M556,602c-1,10-3,19-3,19l5,1c0,0,2-12,3-20s2-25,2-25h-6C557,577,557,592,556,602z"/>
		<polygon class="st1" points="369.3,788 375.7,788 378,775.3 375.3,763.7 371,760.3 357.7,762.3 356,768.7 358.3,774.3 		"/>
		<path class="st1" d="M540.1,425l-1.5,27.6c1.8,0.3,3.7,0.6,5.6,1c-0.3-3.7-0.8-11.8-0.8-17C543.3,430.1,541.5,427,540.1,425z"/>
		<path class="st1" d="M464.1,604.9l2.5-12.8h-4.1c0,0-1.3,9.4-1.9,12.9s-1.1,7-2.3,10.6l10.5,0.3l0.8-3.8l-6.8-0.3L464.1,604.9z"/>
		<path class="st1" d="M443.3,595.8h4c0,0,0,5-1,9s-2,10-2,10h3c0,0,2-5,3-10s1-8.8,1-8.8h4.5l0.3-4.6h-12.1L443.3,595.8z"/>
		<polygon class="st1" points="184,525 186,525 186,534 188,534 188,525 190,525 190,522 184,523 		"/>
		<path class="st1" d="M587.3,431.6l-10-3l-3,8v22.2c9.1,1.6,18.3,3.1,27.5,4.7l-1.5-27.9L587.3,431.6z"/>
		<polygon class="st1" points="205,520 204,523 203,521 201,521 202,526 200,532 202,531 204,528 205,531 208,531 205,526 208,520 
					"/>
		<polygon class="st1" points="386.7,770.7 411.3,770.7 412.7,763.3 411,759.3 385,759.3 383.7,762 384.7,769.7 		"/>
		<rect x="191" y="522" class="st1" width="2" height="11"/>
		<path class="st1" d="M216,519c-1-1-3,0-4,1s-1,3-1,3h1l2-2l1,1l-2,2l-2,4v2h6v-3l-3,1l3-5C217,523,217,520,216,519z"/>
		<path class="st1" d="M402,598c-2,13-4,18-9,33s-12,26-12,26l5,2c0,0,10-17,13-25s9-27,10-35s2-35,2-35h-7C404,564,404,585,402,598
			z"/>
		<polygon class="st1" points="220,518 218,520 218,523 219,525 221,525 222,524 222,526 220,527 219,526 218,527 220,529 222,529 
			224,527 224,524 224,520 223,518 		"/>
		<path class="st1" d="M573.1,596.6c0,0.5-1.5,8.4-2.1,12.9s-2.5,12.1-2.5,12.1l14.6,0.8c0,0,1.5-7.8,2.1-11s1.3-14.6,1.3-14.6
			S573.1,596.1,573.1,596.6z"/>
		<rect x="471" y="762" class="st1" width="14" height="6"/>
		<path class="st1" d="M416.9,733c0.8,0,1.5,0.1,2.3,0.2c1.6,0.1,2.7,0.4,3.9,0.9c0.8,0.3,1.6,0.6,2.4,1c0.2,0.1,0.4,0.1,0.6,0.2
			c3.3,1.2,6.5,1.7,9.1,3c4.2,1.2,8,3.7,11.3,7.2l9.5,1.6l5,5l2.6,7H488l1-1l5-1l1,3l12,1l8-4l-0.9-25.8l-119.9,1.4l-6.6,17.2
			l6.8-0.5C399.9,739.3,407.9,733,416.9,733z"/>
		<path class="st1" d="M888.5,614.3c0,0-0.8,7-1.7,11.5c-0.8,4.5-2.5,11-2.5,11l24.7,1.3c0,0,1.2-6.2,2.2-10.8s1.2-12,1.2-12
			L888.5,614.3z"/>
		<path class="st1" d="M1004,640c1-5,4-29,4-29h-4c0,0-2,20-3,29s-8,20-8,20l3,1C996,661,1003,645,1004,640z"/>
		<path class="st1" d="M422.7,758.3l-3.7,1.3l-3.3,4l0.7,7l3-0.7l0.7,13.7l2.7-1c0,0,6-12.7,7.7-13.7c1.7-1,1.7-4.7,1.7-4.7l-1.3-5
			L422.7,758.3z"/>
		<path class="st1" d="M938,623c1-6,0-17,0-17h-3c0,0,0,11-1,17s-3,16-3,16h3C934,639,937,629,938,623z"/>
		<path class="st1" d="M856,599c0,0,0,12-1,19s-3,17-3,17h4c0,0,2-10,3-16s0-20,0-20H856z"/>
		<path class="st1" d="M674.3,584.3c0,0,0,15.3-0.7,23.3c-0.7,8-3.7,19.3-3.7,19.3l6,0.3c0,0,1.7-11.7,2.7-19.3
			c1-7.7,0.7-23.7,0.7-23.7H674.3z"/>
		<polygon class="st1" points="684.4,428.1 685.5,443 697.3,463.6 690.8,464.7 693,472.5 708,475.3 706.8,425.8 		"/>
		<path class="st1" d="M675.3,406.6l0.2,18.4c2,0.1,3.7,0.2,5.1,0.3l-0.3-11.7C680.3,413.6,680.3,409.6,675.3,406.6z"/>
		<path class="st1" d="M670.4,404.5c-0.9,0-2.3,0.2-5.1,0.2c-7,0-41,4-41,4l-45,7l-37.6,5.8c0.7,1.1,1.7,2.8,2.6,5.2c2,5,1,14,1,21
			c0,2.3,0.1,4.5,0.3,6.2c8.6,1.5,17.5,3,26.5,4.6c-0.5-5.1-1.6-17.9-0.8-21.8c1-5,3-10,6-10s8,1,12,2s12,3,12,3l6,1h11l23-3l0.1,0
			l-0.1-3c0,0,9-2,20-2c3.3,0,6.7,0.1,9.9,0.2L670.4,404.5z"/>
		<path class="st1" d="M710.8,425.4l0.4,50.5l23.4,4.4c-0.3-21.7-0.3-49.4-0.3-57.4L710.8,425.4z"/>
		<path class="st1" d="M641.3,432.6l-23,3h-12h-2.5l0.2,15.2c1.2-0.2,3-0.6,5.3-0.9v-5.2h7v4.2c3.6-0.5,7.7-0.9,12-1.2
			c5.6-0.4,10.2-0.3,13.8-0.1l-0.6-14.9L641.3,432.6z"/>
		<polygon class="st1" points="733.2,420.8 726.3,417.6 716.3,414.6 712.3,417.6 711.1,423.2 728.3,421.6 		"/>
		<path class="st2" d="M425.4,735c1.3,0.6,2.6,1.4,3.8,2.3c2,0,4,0.3,5.9,0.9c-2.6-1.3-5.9-1.8-9.1-3
			C425.8,735.2,425.6,735.1,425.4,735z"/>
		<path class="st2" d="M419.2,733.2c1.3,0.2,2.6,0.5,3.9,0.9C421.9,733.6,420.8,733.2,419.2,733.2z"/>
		<g>
			<path class="st1" d="M285,744.5c6-4.5,11.8-6.3,11.8-6.3v-1.5c0,0-7.8,1.5-13.3,6.8s-10,15.8-9.8,16.8
				C273.8,760.3,279,749,285,744.5z"/>
			<polygon class="st1" points="184,525 186,525 186,534 188,534 188,525 190,525 190,522 184,523 			"/>
			<path class="st1" d="M289.8,753.3c-4.8,7-7.3,22.3-7.3,22.3s5.3-15.5,9-21.3s5.3-7.3,10.8-11.3s10.3-4.5,10.3-4.5s-4.5-1-11,2.8
				S294.5,746.3,289.8,753.3z"/>
			<path class="st1" d="M303.3,835.5c-2.8-1.5-8-7.5-11.3-12.3s-8-20.5-8-20.5l-2.3-11.8c0,0-1.8,4.3,0.3,12.3s3.5,11.8,8.8,20.8
				s8.3,9.3,11.3,12.5s8.5,1.8,14.8,1.3s11.3-6,11.3-6s-9,3.8-12.8,4.8S306,837,303.3,835.5z"/>
			<rect x="191" y="522" class="st1" width="2" height="11"/>
			<polygon class="st1" points="369.3,788 375.7,788 378,775.3 375.3,763.7 371,760.3 357.7,762.3 356,768.7 358.3,774.3 			"/>
			<path class="st1" d="M402,598c-2,13-4,18-9,33s-12,26-12,26l5,2c0,0,10-17,13-25s9-27,10-35s2-35,2-35h-7
				C404,564,404,585,402,598z"/>
			<polygon class="st1" points="220,518 218,520 218,523 219,525 221,525 222,524 222,526 220,527 219,526 218,527 220,529 222,529 
				224,527 224,524 224,520 223,518 			"/>
			<polygon class="st1" points="205,520 204,523 203,521 201,521 202,526 200,532 202,531 204,528 205,531 208,531 205,526 208,520 
							"/>
			<path class="st1" d="M216,519c-1-1-3,0-4,1s-1,3-1,3h1l2-2l1,1l-2,2l-2,4v2h6v-3l-3,1l3-5C217,523,217,520,216,519z"/>
			<polygon class="st1" points="963,754 964.5,753.8 965.5,747.5 965,737 962.5,735.8 957.3,736.5 957.3,737.8 957.8,744.3 			"/>
			<path class="st1" d="M443.3,595.8h4c0,0,0,5-1,9s-2,10-2,10h3c0,0,2-5,3-10s1-8.8,1-8.8h4.5l0.3-4.6h-12.1L443.3,595.8z"/>
			<polygon class="st1" points="981.5,742 981,736.5 979,735 970.3,736.3 970.3,741.8 971.8,742.8 			"/>
			<polygon class="st1" points="925.8,722.8 921.3,729.3 917.8,745.5 919.8,742.5 922.8,729.8 925.8,724.5 930.8,723.3 933.3,724 
				937.3,728.8 938.8,728 933.8,722.5 930.3,721.3 			"/>
			<polygon class="st1" points="757.7,717.3 757.9,716.6 756.8,717.1 			"/>
			<polygon class="st1" points="984.3,742.5 987.5,742.3 989.3,737.8 988.3,735 984.8,735.3 983.3,736.5 983.5,741.5 			"/>
			<polygon class="st1" points="386.7,770.7 411.3,770.7 412.7,763.3 411,759.3 385,759.3 383.7,762 384.7,769.7 			"/>
			<path class="st1" d="M416.9,733c0.8,0,1.5,0.1,2.3,0.2c-0.8,0-1.8,0-2.9,0.1c-5.3,0.5-6.8,0.5-12.8,5.5s-6.8,11.5-6.8,11.5
				l1.5,0.3l2.3-5.8l4.3-5l5-3.8l6.5-1.5l7.3,1.3l-5.5,2.8l-5,4.5l-4.3,4.8l-1.3,3.3l2.8-0.5l0.5-2.8l4.3-4l4.8-4.3l5.5-2.3l7.5,2
				l5,2.5l3.8,4l2.3-0.8c0,0-5.3-5-8-6.5c-0.2-0.1-0.4-0.2-0.6-0.3c4.2,1.2,8,3.7,11.3,7.2l9.5,1.6l5,5l2.6,7H488l1-1l5-1l1,3l12,1
				l8-4l-0.9-25.8l-119.9,1.4l-6.6,17.2l6.8-0.5C399.9,739.3,407.9,733,416.9,733z"/>
			<path class="st1" d="M1004,640c1-5,4-29,4-29h-4c0,0-2,20-3,29s-8,20-8,20l3,1C996,661,1003,645,1004,640z"/>
			<rect x="471" y="762" class="st1" width="14" height="6"/>
			<path class="st1" d="M422.7,758.3l-3.7,1.3l-3.3,4l0.7,7l3-0.7l0.7,13.7l2.7-1c0,0,6-12.7,7.7-13.7c1.7-1,1.7-4.7,1.7-4.7l-1.3-5
				L422.7,758.3z"/>
			<polygon class="st1" points="921.5,721 921,719.5 918,720.8 914.3,726.5 912.3,731.5 912,735 913.5,732.8 916.3,726.3 919,723.5 
							"/>
			<polygon class="st1" points="684.4,428.1 685.5,443 697.3,463.6 690.8,464.7 693,472.5 708,475.3 706.8,425.8 			"/>
			<polygon class="st1" points="733.2,420.8 726.3,417.6 716.3,414.6 712.3,417.6 711.1,423.2 728.3,421.6 			"/>
			<path class="st1" d="M710.8,425.4l0.4,50.5l23.4,4.4c-0.3-21.7-0.3-49.4-0.3-57.4L710.8,425.4z"/>
			<path class="st1" d="M675.3,406.6l0.2,18.4c2,0.1,3.7,0.2,5.1,0.3l-0.3-11.7C680.3,413.6,680.3,409.6,675.3,406.6z"/>
			<path class="st1" d="M674.3,584.3c0,0,0,15.3-0.7,23.3c-0.7,8-3.7,19.3-3.7,19.3l6,0.3c0,0,1.7-11.7,2.7-19.3
				c1-7.7,0.7-23.7,0.7-23.7H674.3z"/>
			<path class="st1" d="M856,599c0,0,0,12-1,19s-3,17-3,17h4c0,0,2-10,3-16s0-20,0-20H856z"/>
			<path class="st1" d="M670.4,404.5c-0.9,0-2.3,0.2-5.1,0.2c-7,0-41,4-41,4l-45,7l-37.6,5.8c0.7,1.1,1.7,2.8,2.6,5.2c2,5,1,14,1,21
				c0,2.3,0.1,4.5,0.3,6.2c8.6,1.5,17.5,3,26.5,4.6c-0.5-5.1-1.6-17.9-0.8-21.8c1-5,3-10,6-10s8,1,12,2s12,3,12,3l6,1h11l23-3l0.1,0
				l-0.1-3c0,0,9-2,20-2c3.3,0,6.7,0.1,9.9,0.2L670.4,404.5z"/>
			<path class="st1" d="M464.1,604.9l2.5-12.8h-4.1c0,0-1.3,9.4-1.9,12.9s-1.1,7-2.3,10.6l10.5,0.3l0.8-3.8l-6.8-0.3L464.1,604.9z"
				/>
			<path class="st1" d="M886.8,625.8c-0.8,4.5-2.5,11-2.5,11l24.7,1.3c0,0,1.2-6.2,2.2-10.8s1.2-12,1.2-12l-23.8-1
				C888.5,614.3,887.7,621.3,886.8,625.8z"/>
			<path class="st1" d="M935,606c0,0,0,11-1,17s-3,16-3,16h3c0,0,3-10,4-16s0-17,0-17H935z"/>
			<path class="st1" d="M510.9,599.4l-1.9-4.3l-4-0.8l-2.3,3l-1.9,6.3l0.8,5.3l2.3,1.6l2.5-0.9l1.5-1.9l-1.4,2.9l-0.9,2.4l-1.3,1.5
				l-1.8-0.9l0.1-1.4l-3,1l0.9,4l2.5,1.5c0,0,4.3-1,4.3-1.4s2.4-4.1,2.4-4.1l0.8-4.1l0.9-5.9L510.9,599.4z"/>
			<path class="st1" d="M518.5,596c-4.1-0.4-6.4,5.9-6.8,12.1c-0.4,6.4-1.5,11.4,3,11.4c2.9,0,6.2-6,6.8-12.3
				C522,601.1,521.4,596.3,518.5,596z"/>
			<path class="st1" d="M540.1,425l-1.5,27.6c1.8,0.3,3.7,0.6,5.6,1c-0.3-3.7-0.8-11.8-0.8-17C543.3,430.1,541.5,427,540.1,425z"/>
			<polygon class="st1" points="482.1,593.1 479.4,600.1 478,593 474,592.9 476.6,605.1 474.1,609 471,614 470.4,616.9 474,617.1 
				477.5,609.4 479.1,617.1 482.6,617.1 480.8,604.4 486.1,593.1 			"/>
			<path class="st1" d="M500.5,599.5l-1.4-4.5l-3.5-1.3l-3.3,2.9l-1.9,5.6l3.9-0.3l0.5-2.6l1.6,0.4l0.3,1.9l-1.5,3.3
				c0,0-3.5,3.3-4.6,4.3s-2.3,4-2.3,4l-0.5,3.8l9.1,0.6l1.1-4l-5.3-0.6c0,0,5.3-5.3,6.3-7.1S500.5,599.5,500.5,599.5z"/>
			<path class="st1" d="M556,602c-1,10-3,19-3,19l5,1c0,0,2-12,3-20s2-25,2-25h-6C557,577,557,592,556,602z"/>
			<path class="st1" d="M573.1,596.6c0,0.5-1.5,8.4-2.1,12.9s-2.5,12.1-2.5,12.1l14.6,0.8c0,0,1.5-7.8,2.1-11s1.3-14.6,1.3-14.6
				S573.1,596.1,573.1,596.6z"/>
			<path class="st1" d="M587.3,431.6l-10-3l-3,8v22.2c9.1,1.6,18.3,3.1,27.5,4.7l-1.5-27.9L587.3,431.6z"/>
			<path class="st1" d="M641.3,432.6l-23,3h-12h-2.5l0.2,15.2c1.2-0.2,3-0.6,5.3-0.9v-5.2h7v4.2c3.6-0.5,7.7-0.9,12-1.2
				c5.6-0.4,10.2-0.3,13.8-0.1l-0.6-14.9L641.3,432.6z"/>
			<polygon class="st2" points="756.8,717.1 757.9,716.6 759,712.3 755,713 755.2,711.8 754,712 754,717.7 754.6,717.6 754.7,716.6 
							"/>
			<path class="st2" d="M955.5,711.4l0.3,1.7l39.2-0.8l0.7-2l-2.7-1.7l-33.7,0.5l-0.8,2C957.6,711.2,956.6,711.3,955.5,711.4z"/>
			<path class="st2" d="M930,715l-2.7,0.7l-1.7-2.3l-76.7,1l-0.3,2.3h-3.3l-1.7-2.7l-84,1.7l-1.8,0.9l-0.2,0.8l-0.9-0.2l-0.4,0.2
				l-1.8,0.3l-0.8,9.2l69-3.8l-4.7,10l-13.5-0.5v31l9.5,2l8.5,21.5l8.5,1.5l15.5-4.5l16.5-16l6.5,11.5l16,7l5.5-2l5.5-12l15.1,0.7
				c2.9,9.9,8,16.4,13.7,16.4c3.3,0,6.4-2.2,9-5.9c2.4-1.1,4.6-3.7,6.4-7.3l0.3,0l8,2.5l15.1-1.4c2.3,4.9,5.2,7.8,8.4,7.8
				c2.3,0,4.4-1.5,6.3-4.1c0.3,0.1,0.6,0.1,0.9,0.1c4.9,0,9-9.6,10.3-22.6l15.5-1.8l-2-16.5l-4-3.5l-1.5-11.5l-12.7-0.8
				c-1.6-3-3.6-4.7-5.7-4.7c-0.7,0-1.4,0.2-2.1,0.6c-0.9-0.9-1.8-1.6-2.7-2l1.7,2.2L975,721l-1.8-2l-3.5,0.5l-2.8,3.8l-2.5,6
				l-1.8-0.5l1.9-4.2c-0.2,0.3-0.4,0.7-0.5,1.1L958,726l-2.2-12.9l-25.1,0.5L930,715z M984.8,735.3l3.5-0.3l1,2.8l-1.8,4.5l-3.3,0.3
				l-0.8-1l-0.3-5L984.8,735.3z M970.3,736.3l8.8-1.3l2,1.5l0.5,5.5l-9.8,0.8l-1.5-1V736.3z M957.3,736.5l5.3-0.8l2.5,1.3l0.5,10.5
				l-1,6.3L963,754l-5.3-9.8l-0.5-6.5V736.5z M913.5,732.8L912,735l0.3-3.5l2-5l3.8-5.8l3-1.3l0.5,1.5l-2.5,2.5l-2.8,2.8
				L913.5,732.8z M938.8,728l-1.5,0.8l-4-4.8l-2.5-0.8l-5,1.3l-3,5.3l-3,12.8l-2,3l3.5-16.3l4.5-6.5l4.5-1.5l3.5,1.3L938.8,728z"/>
			<g>
				<path class="st2" d="M573.3,610.1c-0.8,3.4-2.3,9.9-2.3,9.9l11,0.4c0,0,1.1-6.3,1.9-9.8s1-12.5,1-12.5l-10.6-0.1
					C574.3,598,574,606.8,573.3,610.1z"/>
				<polygon class="st2" points="757.7,652.3 741.5,652.7 739.3,684.3 756.3,684.7 				"/>
				<path class="st2" d="M759.1,579.3l-8.4-31.8c-3.8-0.3-12.4-1-15.4-1.3l7.9,32.5L759.1,579.3z"/>
				<path class="st2" d="M739.3,687.7v-3.3l-1.7,21.9l0.3-0.2l-2.2,21.8l16-0.9c0.5-5.2,0.9-10.2,1.2-13.9c0.5-6.3,1-6.5,1.3-5
					l1.7-20.3H739.3z"/>
				<polygon class="st2" points="722,515.9 734.8,544.7 750.1,545.6 735.2,517 				"/>
				<polygon class="st2" points="743.3,580.6 743.7,613.7 760,614.8 759.4,581.3 				"/>
				<polygon class="st2" points="758.7,649.7 760,616.8 743.7,615.3 741.7,650 				"/>
				<g>
					<polygon class="st2" points="337,719.7 337,722.5 343,722.5 343,719.7 342.7,719.7 					"/>
					<polygon class="st2" points="347.7,726 344.7,725.7 344.7,735.1 347.5,735 					"/>
					<g>
						<path class="st2" d="M1042.3,711.5l-0.3-1.3V708h-2.8v-1.5h-6.5l-0.3,1.3h-4.5l-22.8-0.3v-1l1.3-2l5.3-13.3l0.3-1.3l-6.5-15.8
							l-2.3,4.3V664l-4-0.2c-0.7,1.6-1.3,3.2-1.9,4.7l-0.6,20.7l-0.5,19.5h-27.7c-0.4,0.3-0.9,0.6-1.3,0.9c-0.9,0.5-3.9,1-8.7,1.5
							l-0.3,0.9h26.5l14.3-0.3l0.5,2.5l40.8-0.5l-0.5-2.3H1042.3z"/>
						<g>
							<path class="st2" d="M248,787l-3,1h-8h-12l-4-1l-0.2-1.5l-2.5,0.1c0.2,1,0.5,1.9,0.6,2.4c1,3,6,4,6,4l13-1h11l1-1l0.5-5.6
								l-2.5,0.1V787z"/>
							<g>
								<polygon class="st2" points="515.8,605.1 515,609.3 515.3,613 516.6,612.9 517.4,610.3 518.1,605.3 518.1,601.4 
									516.8,601.1 								"/>
								<g>
									<polygon class="st2" points="505.8,598.5 504.1,601.5 503.9,604.8 505.6,606.5 507.4,604.6 507.5,601.4 507.3,599.3 
																			"/>
									<path class="st2" d="M1000.3,562.6c-6-10-22-28-28-32s-26-16-32-17s-57-9-82-12l-115.4-14.8l-1.6-5.2l-3-0.6v-59.4l2-2
										l-2-2l-11-4l-10-3l-6,1l-3,5l-1.4,7l-22.6,2.1l0,0c0,0-0.1,0-0.2,0c-0.2-7.4-0.5-12.9-0.8-14c-1-4-8-9-13-10s-12,0-12,0
										l-35,4l-45,6c0,0-40,5-41,5s-6,1-7,3s2,2,2,2l3,1v29.5c-46.1-7.9-82.6-14.2-91-15.5c-26-4-76-15-96-18s-33-8-48-10
										s-32,0-46,1s-36,11-52,22s-32,32-40,45l3.3,0.1l-3.3,3.9c0,0-8,12-10,16s-10,19-12,32s-12,52-5,80s20,66,31,81s25,25,38,31
										s8,14,8,14v36l5,15l1.1,0c-1-4.4-2.4-12.3-2.4-15.6l3,1l1.8,14.5l27.2-1V777l2-12h3l-2,14l-0.5,5.4l17.9-0.7
										c-0.1,1.8-0.2,3.6-0.2,5.4c0,30.7,15.2,55.5,34,55.5c5.6,0,10.8-2.2,15.4-6.1c16.4-1,29.7-19,32.2-42.3
										c6.5,10,11.7,18.4,15.1,20.7c6,4,5,6,10,6c4.8,0,19-2.8,24.5-3c4.9,5.7,10.9,9,17.4,9c4.9,0,9.5-1.9,13.6-5.2
										c15.9-1,28.6-19.9,28.6-43.2c0-2.7-0.2-5.4-0.5-8l1.5,0.4l2.5-8h3.5l1,7h15l6-2v-3h4l3-3h11h5l3,3l5-1l-0.1-4l4.6,0.1
										l0.2,2.9h3.3l-0.3-2.9l12.7,0.2l2.3,1.3l0.7,2.7l4.3-1.7l0.7-3.7l-1-0.8l20.6-1.2l0.4,0.6l6.7-0.3l0.1-0.7l85.5-4.8
										l0.4,5.1l6,8l3,1l3-9l0.5-5.8l58.1-2.8c-0.3,3.8-0.6,6.6-0.6,6.6h21l0.7-7.6l63.6-3l11-2.3l-74.5,3.8l0.8-8.4l58.7-1.8
										l0.7-3.3l-59.1,1.9l0.9-9.4l-2,0.1c-0.3,3.1-0.6,6.3-0.9,9.4l-4.4,0.1l-10.8-7l0.2-1.6l-6.9,0.4l3.3,2.2
										c-0.1,1.3-0.2,2.2-0.2,2.7c0,0.6-0.1,2-0.2,3.9l-4.1,0.1l-9.5-6.6l-2.3,1.9l7.7,4.8l-13.8,0.4l6.1-5.2L696,720l6-1
										l16.2,11.3l2-1.7l8.7-0.5L715,719v-2l-23.3,0.3l-37,0.3l-102.3,2.7L435,722l-3.3,2.7l-0.3,2.3h-60l-5.7,2l-0.7,5.7
										l-17.5,0.4l-1.1,49.6l-1.3,1.7l-27,1.7l-3-0.3l1-56.7l3.3-1l-2.3,55.7l1.3,1l24.7-2l1.7-1.3v-48.3l-12.7,0.3l-2.3-6
										l-8.3,0.7v-10.3H337l-0.5-84.2c0,0-0.5-27-1.5-30.5s-1.5-8-5-10s-18.5-1-18.5-1l-96.5,9l-47,2h-15l2-4.5l13,0.5l47.5-2.5
										l95.5-9l12-1.5l10,2.5l7,12.5l2,32l1,84.7l10.4-0.3l-0.3-4l12.3,0.7l-0.7,3l19.3,0.7l0.3-9.3l3.3,0.7v3h1.7l-0.3,4h37.3
										l3-67.3l-21.7-8l0.3-4l15.3,0.3l0.7,4l-2.7,1.3l8,4.3l8,1l-1.7,69L550,717l-29.3-34.7l2-3l30,37.7l94.3-1.7l-25.7-32l2-1.7
										L651,715l66.3-1.3l1.7,3.3l-2.4,0l15.9,10.3c0.9-7.5,2.5-19.4,2.5-19.4l0.2-0.1l1.5-20.3l0.3-4l2.3-34.3l1.7-34.7v-35.3
										l-8.7-34.7c0,0-10.3-24.3-14.3-30.3S697.3,490,697.3,490l-12-10.3l2-1L700,490l20.7,23l0.4,0.9l12.5,0.9L718,494.7l-10.3-8
										l-5.3-1l1.7-7.3l5,0.3l1,5.7l9.7,8.7l17.7,22.3l16,30.3l8.3,34.3l0.7,37l-1.7,34.3l-2,35l-3.5,25.5l3.8-0.5v1v0.3l83.3-0.7
										l-23.7-28l2.3-2.3l24,29.7l78-1l-23.3-26.7l1.7-1l24,27l34-0.5l0.2-0.4h9c8-5.6,19.1-18.9,25.7-33.1c1-2.1,2-4.5,3.1-7.1
										l0.1-4.8l1.8,0.1c6-15.1,12.2-34.4,13-45.2C1013.3,604.6,1006.3,572.6,1000.3,562.6z M735.4,732.4l6.4,4.2l-2.8,0.1
										l-4.1,0.1L735.4,732.4z M734.3,742.9l6.7,0.1l3.3-3.3l2-0.1l3.6,2.4l0.4-0.4c-0.2,2.3-0.4,4.4-0.6,6.3l-16,0.8L734.3,742.9
										z M733.6,750.2l16-0.8c-0.3,3.4-0.6,5.5-0.6,5.5l-16,1L733.6,750.2z M672.8,750.6h21.5l9.4-7.9l27.7,0.2
										c-0.2,2-0.4,4-0.5,5.9l-58.1,3L672.8,750.6z M430.3,769c-1.7,1-7.7,13.7-7.7,13.7l-2.7,1l-0.7-13.7l-3,0.7l-0.7-7l3.3-4
										l3.7-1.3l8,1l1.3,5C432,764.3,432,768,430.3,769z M485,768h-14v-6h14V768z M518.8,760l-0.3-12.9l3.8-0.1l1,12.9L518.8,760z
										 M588.9,730.6h22.3l15.9,10.2l-19.1-0.2l-3.3,0.3l-1.7,1.3l-14.7,0.3l-0.3-10L588.9,730.6z M590.7,746.3l1.7-1l40.4-0.8
										l9.5,6.1h17.1l0.1,1.8l-85.2,4.1l0-0.2l-3.3-0.7V746h7.7l2.7,1.7l2.7-0.3l2.7-2L590.7,746.3z M583,730.6l1.3,1.7l0.7,7.7
										h-1.7H580v2.7l-9.3,0.3l-0.5-12.4H583z M565.4,757l-19.3,0.9l0.6-10.9l20.7-1l1,9.7L565.4,757z M564.3,730.6h3.3l-0.3,12.7
										l-22,0.7l-1.8-13.1L564.3,730.6z M541.7,759.7l-15.2,0.2l-1.4-12.5h17.7L541.7,759.7z M539.6,730.9l2.1,13.8l-17.3,0.3
										l-2-13.9L539.6,730.9z M519.3,731.2l2.4,13.5l-3.2,0.1l-0.3-13.6L519.3,731.2z M515,757l-8,4l-12-1l-1-3l-5,1l-1,1h-24.4
										l-2.6-7l-1.7-1.7h24.3l0.3,3.7h5l0.3-6l25.3-0.8L515,757z M394.3,732.6l119.9-1.4l0.5,13.7l-33.3,1.1l-0.3-2.3l-2.3,0.7
										l-0.7,2l-28-0.7l0.1,0.3l-3.6-0.6c-3.3-3.4-7.2-5.9-11.3-7.2c0.2,0.1,0.4,0.2,0.6,0.3c2.8,1.5,8,6.5,8,6.5l-2.3,0.8l-3.8-4
										l-5-2.5l-7.5-2l-5.5,2.3l-4.8,4.3l-4.3,4l-0.5,2.8l-2.8,0.5l1.3-3.3l4.3-4.8l5-4.5l5.5-2.8l-7.3-1.3l-6.5,1.5l-5,3.8
										l-4.3,5l-2.3,5.8l-1.5-0.3c0,0,0.8-6.5,6.8-11.5s7.5-5,12.8-5.5c1.2-0.1,2.1-0.1,2.9-0.1c-0.8-0.1-1.5-0.2-2.3-0.2
										c-8.9,0-16.9,6.3-22.4,16.3l-6.8,0.5L394.3,732.6z M385,759.3h26l1.7,4l-1.3,7.3h-24.7l-2-1l-1-7.7L385,759.3z
										 M357.7,762.3l13.3-2l4.3,3.3l2.7,11.7l-2.3,12.7h-6.3l-11-13.7l-2.3-5.7L357.7,762.3z M315.3,836.5
										c3.8-1,12.8-4.8,12.8-4.8s-5,5.5-11.3,6s-11.8,2-14.8-1.3s-6-3.5-11.3-12.5s-6.8-12.8-8.8-20.8s-0.3-12.3-0.3-12.3
										l2.3,11.8c0,0,4.8,15.8,8,20.5s8.5,10.8,11.3,12.3S311.5,837.5,315.3,836.5z M312.5,738.5c0,0-4.8,0.5-10.3,4.5
										s-7,5.5-10.8,11.3s-9,21.3-9,21.3s2.5-15.3,7.3-22.3s5.3-8.3,11.8-12S312.5,738.5,312.5,738.5z M283.5,743.5
										c5.5-5.3,13.3-6.8,13.3-6.8v1.5c0,0-5.8,1.8-11.8,6.3s-11.3,15.8-11.3,15.8C273.5,759.3,278,748.8,283.5,743.5z M190,525
										h-2v9h-2v-9h-2v-2l6-1V525z M193,533h-2v-11h2V533z M208,531h-3l-1-3l-2,3l-2,1l2-6l-1-5h2l1,2l1-3h3l-3,6L208,531z
										 M217,527v3h-6v-2l2-4l2-2l-1-1l-2,2h-1c0,0,0-2,1-3s3-2,4-1s1,4,1,4l-3,5L217,527z M224,524v3l-2,2h-2l-2-2l1-1l1,1l2-1
										v-2l-1,1h-2l-1-2v-3l2-2h3l1,2V524z M409,599c-1,8-7,27-10,35s-13,25-13,25l-5-2c0,0,7-11,12-26s7-20,9-33s2-34,2-34h7
										C411,564,410,591,409,599z M455.8,596h-4.5c0,0,0,3.8-1,8.8s-3,10-3,10h-3c0,0,1-6,2-10s1-9,1-9h-4l0.6-4.4H456L455.8,596z
										 M468.9,615.9l-10.5-0.3c1.1-3.6,1.6-7.1,2.3-10.6s1.9-12.9,1.9-12.9h4.1l-2.5,12.8l-1.3,7l6.8,0.3L468.9,615.9z
										 M482.6,617.1h-3.5l-1.6-7.8l-3.5,7.8l-3.6-0.3l0.6-2.9l3.1-5l2.5-3.9l-2.6-12.3l4,0.1l1.4,7.1l2.8-7h4l-5.4,11.3
										L482.6,617.1z M498.1,613.5l-1.1,4l-9.1-0.6l0.5-3.8c0,0,1.1-3,2.3-4s4.6-4.3,4.6-4.3l1.5-3.3l-0.3-1.9l-1.6-0.4l-0.5,2.6
										l-3.9,0.3l1.9-5.6l3.3-2.9l3.5,1.3l1.4,4.5c0,0-0.4,4.4-1.4,6.3s-6.3,7.1-6.3,7.1L498.1,613.5z M509.8,613.3
										c0,0-2.4,3.8-2.4,4.1s-4.3,1.4-4.3,1.4l-2.5-1.5l-0.9-4l3-1l-0.1,1.4l1.8,0.9l1.3-1.5l0.9-2.4l1.4-2.9l-1.5,1.9l-2.5,0.9
										l-2.3-1.6l-0.8-5.3l1.9-6.3l2.3-3l4,0.8l1.9,4.3l0.5,3.9l-0.9,5.9L509.8,613.3z M521.5,607.3c-0.5,6.3-3.9,12.3-6.8,12.3
										c-4.5,0-3.4-5-3-11.4c0.4-6.3,2.6-12.5,6.8-12.1C521.4,596.3,522,601.1,521.5,607.3z M538.5,452.7l1.5-27.6
										c1.5,2,3.2,5.1,3.2,11.6c0,5.2,0.6,13.3,0.8,17C542.2,453.3,540.4,453,538.5,452.7z M561,602c-1,8-3,20-3,20l-5-1
										c0,0,2-9,3-19s1-25,1-25h6C563,577,562,594,561,602z M585.3,611.4c-0.6,3.3-2.1,11-2.1,11l-14.6-0.8c0,0,1.9-7.6,2.5-12.1
										s2.1-12.4,2.1-12.9s13.4,0.1,13.4,0.1S585.9,608.1,585.3,611.4z M574.3,458.8v-22.2l3-8l10,3l13,4l1.5,27.9
										C592.5,462,583.3,460.4,574.3,458.8z M628.3,447.6c-4.3,0.3-8.4,0.8-12,1.2v-4.2h-7v5.2c-2.3,0.4-4.1,0.7-5.3,0.9
										l-0.2-15.2h2.5h12l23-3l0.2,0l0.6,14.9C638.5,447.3,633.9,447.2,628.3,447.6z M641.3,426.6l0.1,3l-0.1,0l-23,3h-11l-6-1
										c0,0-8-2-12-3s-9-2-12-2s-5,5-6,10c-0.8,4,0.3,16.7,0.8,21.8c-9-1.6-17.9-3.1-26.5-4.6c-0.1-1.8-0.3-3.9-0.3-6.2
										c0-7,1-16-1-21c-1-2.4-1.9-4.1-2.6-5.2l37.6-5.8l45-7c0,0,34-4,41-4c2.8,0,4.2-0.2,5.1-0.2l0.8,20.4
										c-3.1-0.1-6.6-0.2-9.9-0.2C650.3,424.6,641.3,426.6,641.3,426.6z M678.7,608c-1,7.7-2.7,19.3-2.7,19.3l-6-0.3
										c0,0,3-11.3,3.7-19.3c0.7-8,0.7-23.3,0.7-23.3h5C679.3,584.3,679.7,600.3,678.7,608z M675.5,425l-0.2-18.4c5,3,5,7,5,7
										l0.3,11.7C679.2,425.3,677.4,425.2,675.5,425z M693,472.5l-2.1-7.8l6.4-1.1L685.5,443l-1.1-14.9l22.4-2.3l1.2,49.5
										L693,472.5z M712.3,417.6l4-3l10,3l7,3.2l-5,0.8l-17.1,1.6L712.3,417.6z M711.2,475.9l-0.4-50.5l23.5-2.4
										c0,8.1,0.1,35.7,0.3,57.4L711.2,475.9z M859,619c-1,6-3,16-3,16h-4c0,0,2-10,3-17s1-19,1-19h3C859,599,860,613,859,619z
										 M911.2,627.3c-1,4.7-2.2,10.8-2.2,10.8l-24.7-1.3c0,0,1.7-6.5,2.5-11c0.8-4.5,1.7-11.5,1.7-11.5l23.8,1
										C912.3,615.3,912.2,622.7,911.2,627.3z M938,623c-1,6-4,16-4,16h-3c0,0,2-10,3-16s1-17,1-17h3C938,606,939,617,938,623z
										 M1004,640c-1,5-8,21-8,21l-3-1c0,0,7-11,8-20s3-29,3-29h4C1008,611,1005,635,1004,640z"/>
								</g>
							</g>
						</g>
					</g>
				</g>
			</g>
			<polygon class="st2" points="756.8,717.1 754.7,716.6 754.6,717.6 756.3,717.3 			"/>
			<polygon class="st2" points="759,712.3 759,711.3 755.2,711.8 755,713 			"/>
		</g>
		<path class="st2" d="M423,734c0.7,0.3,1.5,0.6,2.4,1C424.6,734.7,423.8,734.3,423,734z"/>
		<path class="st2" d="M972.5,718c0.8,0,1.6,0.2,2.3,0.5l-0.6-0.8l-5,0.3l-3.3,3.8l-1.3,2.8C966.9,720.4,969.6,718,972.5,718z"/>
	</g>
</g>
</svg>
