<?xml version="1.0" encoding="utf-8"?>
<!-- Generator: Adobe Illustrator 22.0.1, SVG Export Plug-In . SVG Version: 6.00 Build 0)  -->
<svg version="1.1" xmlns="http://www.w3.org/2000/svg" xmlns:xlink="http://www.w3.org/1999/xlink" x="0px" y="0px"
	 viewBox="0 0 1300 1300" style="enable-background:new 0 0 1300 1300;" xml:space="preserve">
<style type="text/css">
	.st0{display:none;}
	.st1{opacity:0.54;fill:#014F89;}
	.st2{fill:#FF9494;}
	.st3{opacity:0.46;fill:#FF9494;}
	.st4{fill:#CB6969;}
	.st5{fill:#FF6969;}
	.st6{fill:#FFBEB5;}
	.st7{opacity:0.4;fill:#FF8080;}
	.st8{fill:#FF8080;}
	.st9{opacity:0.47;fill:#FF6969;}
	.st10{opacity:0.47;fill:#FFECE9;}
	.st11{opacity:0.47;fill:#FFF7F6;}
	.st12{fill:none;}
	.st13{opacity:0.31;fill:#FF6969;}
	.st14{opacity:0.72;fill:#FF6969;}
	.st15{opacity:0.76;fill:#FF6969;}
	.st16{fill:url(#SVGID_1_);}
	.st17{fill:#4C6969;}
	.st18{fill:#7D6969;}
	.st19{fill:#006969;}
	.st20{fill:#FFBABA;}
</style>
<g id="Layer_1" class="st0">
	
		<image style="display:inline;overflow:visible;" width="2737" height="1552" xlink:href="../../../../../../../../Footage/05_us_400.jpg"  transform="matrix(0.4884 0 0 0.4884 35.1345 251)">
	</image>
</g>
<g id="Layer_5">
	<path class="st1" d="M926.3,831.7l-52.7,2.7L875,849c0,0-22.7-4.7-31.3-4.7c-8.7,0-0.7-24.7-0.7-24.7v-26l-33.3,1.3
		c0,0,0-6.7,0.7-10.7c0.7-4-9.3-21.3-9.3-21.3l-8.7-2.7l-4-9.3l-20-5.3l-12.7,1.3l-3.3,10.7l-18.7-1.3l-19.3,3.3l30.7-28
		c0,0,0.7-15.3-1.3-21.3s-28-3.3-28-3.3v-34l4-1.3L719,667c0,0-19.3-2.7-36-2.7s-36,3.3-36,3.3l2.7,2l-1.3,37.3l-23.3,1.3l1.3,29.3
		l24,26l-0.7,6.7L523,768c0,0-376-7-382-7s-69-4-69-4l-21-2l1-28l1-8l8-1l9,3l2-9h-8c0,0-10,0-13,1s-6,8-6,8l-1,35H27l-5.3,136.4
		l134,0.7l776,4L926.3,831.7z M628.5,711.5l16,2v3l-16,1V711.5z M649.5,756l-11-14l11.5-0.5L649.5,756z M713,740l11.5,1.5v5.5
		l-11.5,6V740z"/>
</g>
<g id="Dark">
	<polygon class="st2" points="534.3,629.7 534.7,613.9 535.7,614 535.2,630 	"/>
	<polygon class="st2" points="511.7,629.6 512,613.8 513,613.9 512.5,629.9 	"/>
	<g>
		<path class="st2" d="M563.3,635l1-3.7c0,0-0.9-0.2-2.4-0.5c-0.1-2.8-0.3-7.8-1-7.7c-0.7,0.1-0.2-0.6-2.6-1.2l0.1-3.3l0,0v-1.2
			l-1-0.2l0,0.1l-1.5-0.1l0-0.1l-1-0.2l0,0.2l-2.4-0.1l0.1-1.8l4.2,0.2l4.2,1.7l0.7-0.5l-2.2-0.9l0.2-23.8l0.6-1
			c0,0,0.6-1.6,0.3-2.5s-5.5-3-5.9-2.9s-0.9,2.4-0.9,2.4l4.9,2.3l-0.4,25.1l-0.9-0.4l-5.8-0.7l-12.8-1.2l-17.7-0.2
			c0,0-5.5,0.1-10.7,0.2l0.9-26.3c0,0,3.3,1.9,3.9,1.5s0.6-3.3,0.1-3.6s-3.5,0.1-3.5,0.1v1.1l-0.5-0.9h-0.6l-0.9,28
			c-3.4,0.1-6.5,0.1-7.7,0.1c-3.2,0-4.3,0.2-6.7,0.8l-0.3,14c-0.2,0-0.2,0-0.2,0l0.2,0.6l-0.1,3.5l0.5,0.2l11.9,14.4l0-1.9l-9.1-11
			l1-1.3c7.2,0.6,22.3,1.8,27.7,1.8c4.2,0,13.9,0.3,21.9,0.4l2.8,1.1l-6.8,7.8h-1.4l0,3.7l12.6-12.6c2.2-0.1,3.8-0.2,4.6-0.4
			C562.4,634.9,563.3,635,563.3,635z M551.6,618.4l-0.1,2.6c-1.3-0.1-2.7-0.2-4.1-0.4l0.1-2.4L551.6,618.4z M555.6,629.7l0.1-4.5
			l1.6,0.1l-0.1,4.7C556.7,629.9,556.2,629.8,555.6,629.7z M547.2,628.4l0.1-3.5l4.2,0.2l-0.1,4
			C549.9,628.7,548.4,628.5,547.2,628.4z M552.3,625.1l2.5,0.1l-0.1,4.4c-0.8-0.1-1.7-0.3-2.5-0.4L552.3,625.1z M557.4,624.1
			c-0.4,0-0.9-0.1-1.6-0.1l0-1.5l1.2,0.1l0.4,0.2L557.4,624.1z M554.9,624c-0.8,0-1.6-0.1-2.5-0.1l0.1-1.7l2.5,0.3L554.9,624z
			 M551.5,622.1l0,1.7c-1.4-0.1-2.9-0.1-4.2-0.2l0.1-1.8L551.5,622.1z M546.4,623.6c-1.4-0.1-2.4-0.1-2.4-0.1v1.2l2.3,0.1l-0.1,3.5
			c-0.9-0.1-1.7-0.2-2.3-0.2c-5-0.3-23.3-0.7-29.3-0.3c-1.3,0.1-2.9,0.1-4.6,0.2l0.3-7.6l1.1-0.1l27,1l8.1,0.6L546.4,623.6z
			 M509.4,627.9c-1.5,0.1-3.1,0.1-4.6,0.2l0.2-7.1l4.6-0.6L509.4,627.9z M560.2,624l0.4,6.6c-0.7-0.1-1.6-0.3-2.5-0.5l0.2-5.3
			c0.1-0.2,0.1-0.4,0-0.6l0-1.1L560.2,624z M557.5,618.6l-0.1,3.1c-0.1,0-0.2,0-0.2,0c-0.4-0.1-0.8-0.1-1.3-0.2l0.1-2.9L557.5,618.6
			z M555,618.5l-0.1,2.8c-0.8-0.1-1.6-0.2-2.4-0.3l0.1-2.6L555,618.5z M521.3,614.2l17.8,0.5l11.8,0.7l0.6,0l0,1.8l-7.5-0.3v1.2
			l2.4,0.1l0,2.3c-2.5-0.2-5.3-0.4-8.3-0.7c-8.2-0.7-20.2-1-26.8-0.7c-0.3,0-0.7,0-1,0.1l0.2-4.9L521.3,614.2z M509.8,614.4
			l-0.2,4.9c-1.5,0.1-3.1,0.3-4.6,0.4l0.1-4.2l-1-0.2l-0.1,4.5c-3.2,0.4-5.9,0.8-7.2,1l0.1-5.8l5.2-0.6L509.8,614.4z M496.9,622.1
			l7.2-0.9l-0.1,7c-2.9,0.1-5.5,0.2-7.1,0.2L496.9,622.1z"/>
		<path class="st3" d="M526,592.7c-9.3-0.3-17.7,1-17.7,1l-0.7,51.5l0,1.9L505.7,779l-1,107.7l37,1l2.2-240l0-3.7l0.5-50
			c0,0-0.9-0.1-2.5-0.3c-0.2,0,0-1.5-0.3-1.5c-0.2,0-0.8-0.1-1-0.1c-0.1,0-0.3,1.5-0.4,1.5C537,593.3,532.2,592.9,526,592.7z"/>
	</g>
	<path class="st2" d="M505,674.5l-0.1-1.1c0,0,11.4-0.3,19.9-0.3s20.1,0.9,20.1,0.9l0.3,1.3c0,0-10.9-0.6-20.4-0.8
		S505,674.5,505,674.5z"/>
	<path class="st2" d="M504.7,718.8l-0.1-1.1c0,0,11.4-0.3,19.9-0.3s20.1,0.9,20.1,0.9l0.3,1.3c0,0-10.9-0.6-20.4-0.8
		S504.7,718.8,504.7,718.8z"/>
	<path class="st2" d="M504,763.2l-0.1-1.1c0,0,11.4-0.3,19.9-0.3s20.1,0.9,20.1,0.9l0.3,1.3c0,0-10.9-0.6-20.4-0.8
		S504,763.2,504,763.2z"/>
	<path class="st2" d="M506.3,603.5l-0.1-1.1c0,0,11.4-0.3,19.9-0.3s20.1,0.9,20.1,0.9l0.3,1.3c0,0-10.9-0.6-20.4-0.8
		S506.3,603.5,506.3,603.5z"/>
	<path class="st2" d="M505.7,639.8l-0.1-1.1c0,0,11.4-0.3,19.9-0.3s20.1,0.9,20.1,0.9l0.3,1.3c0,0-10.9-0.6-20.4-0.8
		S505.7,639.8,505.7,639.8z"/>
	<polygon class="st2" points="559.8,617.2 560.5,618.8 572.5,619.5 572.5,617.2 561.7,616.8 	"/>
	<polygon class="st2" points="559.5,652 560.1,653.7 572.1,654.4 572.1,652 561.3,651.7 	"/>
	<polygon class="st2" points="559.5,669.9 560.1,671.6 572.1,672.3 572.1,669.9 561.3,669.6 	"/>
	<polygon class="st2" points="559.5,635.6 560.1,637.3 572.1,637.9 572.1,635.6 561.3,635.3 	"/>
	<path class="st2" d="M543.2,671l15.8,1.5c0,0,1.3,1,2-0.5s0.5-9,0.5-9l0.3-29.7h1.2l-0.5,30.2l-0.7,8.8c0,0,0.5,1.7-2.5,1.7
		s-16.5-0.8-16.5-0.8L543.2,671z"/>
	<polygon class="st2" points="571.3,619 570.8,742.8 572,742.8 572.5,619.5 	"/>
	<polygon class="st2" points="569.2,618.3 568.7,742.1 569.9,742.1 570.4,618.8 	"/>
	<polygon class="st2" points="566,618.3 565.5,742.1 566.6,742.1 567.1,618.8 	"/>
	<polygon class="st2" points="560.2,618 559.7,741.8 560.9,741.8 561.4,618.5 	"/>
	<polygon class="st4" points="595.3,684.7 595.7,710 596.7,712 594.7,713.3 595.3,859 529.3,862.3 528.7,682 546,681.3 556,682.3 
		563.7,688.3 567.7,684 579,683.7 587.7,683.7 	"/>
	<ellipse class="st5" cx="280.6" cy="456" rx="8.4" ry="8.3"/>
	<polygon class="st6" points="167.8,516.8 179.8,517.8 180.8,515 182,451.3 183.3,451.3 182.8,515.5 182.8,518.3 180,519.3 
		169,519.3 	"/>
	<polygon class="st6" points="186.3,508.3 185.8,498.3 186.8,495.8 193.5,496.5 224.8,498.5 223.3,499.5 193.3,498 188,497 
		187,498.3 187.3,508 	"/>
	<polygon class="st6" points="198,505 197,502.8 201.8,501.8 203,504.5 202.8,508 200.5,508.8 200.3,504.8 	"/>
	<path class="st5" d="M331.5,471.5l6-1.8c0,0,1.3-1.3,2.5,0.8s0,8.8,0,8.8v16l-0.8,6l-4,0.5l-12.3-3l-8.3-2.5l-44.5-2.5l-42.3,1.5
		l0.5,7h-3.3l0.5-9.3l-1-0.5l-0.5-2.5l1.8-0.8l0.3-7.5l-1-0.3v-1.8l1-0.5l0.8-13.8l-0.5-3l-1.5-1.3l0.8-2l2.8-0.8l4-1.3l0.5,1.5
		l-3.8,0.8l-2.8,0.8l1.5,1.8l0.8,2.8l-1.3,14l1.5,0.8v1.5l-1.3,0.5v7.3l1.5,3L229,493l41.3-1.5l44,2.3l9,2.8l11,3h3l0.5-5l-0.3-15.3
		l-0.3-7l-8.8,2.5l-0.3-2L331.5,471.5"/>
	<path class="st7" d="M348.8,595.8l8,0.5l1-5h-7l0.3-67c0,0,0.3-22-1.5-26.8s-4.8-7.3-4.8-7.3L342,485l58.5-16.8l-0.8-2.3l-43-4
		l-1.5-24l-11.8-1.5v-7.3c0,0,2.5-6,2.8-10.8s-2.5-8.5-2.5-8.5l-0.5-10.3l-1.3-0.5l-2.5,1.3L322,394l-2.5-2.5l-2.5,1.8l-22.3-6.8
		c0,0-2.3,0.5-2-1.5s-1.3-1.8-1.3-1.8l-25.3,0.6l-9.6,0.3l-0.1,4.5c0,0-3.8-1.1-3.4,2.5s3.3,2.5,3.3,2.5l-0.5,22.6l1.8,0.1v6.8
		l-1.5,0.3l-0.5-1.5l-1.8,0.1l-0.5,1.1l-1,0.1l-0.1-1.3c0,0-2-0.9-2.9-0.9s-4,0.4-4,0.4l-0.1-12.4c0,0-0.6-0.3-1.4-0.3
		s-1.4,0.1-1.4,0.1v6.1l-0.6,1.1l-0.3,6.5c0,0-1.3-0.4-2.3-0.3s-2.5,0.4-2.5,0.4v-5.5l0.9-0.9V407c0,0-1.8-0.4-2.1-0.4
		s-1.3,0.1-1.3,0.1l0.3,11.1c0,0-1.5-3.6-3.5-6.1s-4.6-4.9-4.6-4.9l-9.6-5.1l-5.8-1.6l-6.4,0.4l-0.6-2.1h1.4c0,0,0.8-1.9-0.1-2.4
		s-1.4-0.3-1.4-0.3s0.6-0.1,0.8-1.6s-0.4-2.8-0.4-2.8l1.3-0.1l-0.3-2.6l-6.3,0.2l-0.3,0.9l-1.4-0.1c0,0-0.5,0-0.9,1s0.1,1.4,0.1,1.4
		L194,392c-0.2-1.7-1.3-3-2.7-3c-1.5,0-2.8,1.5-2.8,3.4c0,1.9,1.2,3.4,2.8,3.4c1.2,0,2.3-1,2.6-2.4l2.2,0.4l0.8,2.2l1.8,0.1l0.5,2.1
		l1-0.1l0.1,2.3l-8.4,0.4c0,0-2.1,0.5-4.9,1.3s-8.6,2.4-12.1,3.9s-5.9,4-5.9,4l0.2,9.9l-1.5,0.3l-1.3,40.7L161,833l188,12
		l-1.7-205.1l0.2,1.1l8.5-26l4.8,0.3L364,603l-15.8-0.8L348.8,595.8z M191.4,389.8c1.2,0,1.6,0.5,1.8,1.7l-1.6,0.3l-1.3-1.8
		C190.5,389.8,190.9,389.8,191.4,389.8z M189.4,392.4c0-1,0.1-1.6,0.5-2.1l1.2,1.8l-1.1,2.6C189.5,394.2,189.4,393.5,189.4,392.4z
		 M191.4,395.3c-0.4,0-0.7-0.1-1-0.2l1.1-2.5l1.1,0.6l0.7,0.1C193,394.6,192.6,395.3,191.4,395.3z M195.3,428.9
		c-0.4,2.1-1.1,2-1.1,2l-5.8,1.4l0.1-5.3c0,0,4.4-0.5,5.8,0S195.6,426.8,195.3,428.9z M206.1,426c0,0,1.8,0.3,3.5,1s2.8,3.3,2.8,3.3
		l-6.4-0.1L206.1,426z M213.6,438.3l-7.8-0.4l0.1-2.9l7.6,0.8V438.3z M250,424.9l0.5,6.6l-1.8,0.1l-0.4-7L250,424.9z M251.4,437.9
		l-1.3,0.1v2.1l-1.3,0.4l-0.1-6.8l3-0.3L251.4,437.9z M348.8,614.8l4.3-0.3l-4.5,13.6l-1.2,3.5l-0.1-12.4L348.8,614.8z"/>
	<polygon class="st8" points="439,761 438.7,766.7 490,767.3 490.7,771 529,771.3 528.3,764.7 497,766 497,762.3 	"/>
	<polygon class="st8" points="349.8,571.3 356.2,549.2 359.2,549 364.8,564.5 363.5,566.5 363.5,569.3 366.7,570.7 366.7,559.5 
		361.3,547.5 390.3,543.2 392.2,540.5 348.2,538 348,548.8 352.3,549 349.3,564.8 	"/>
</g>
<g id="Layer_4">
	<polygon class="st8" points="377.3,485.3 376.3,483 376.3,479.3 379.7,479.3 380,483.3 379,485.3 374.7,721.3 372.7,721 	"/>
	<path class="st8" d="M374.7,685.3l6.3-2.3h11.7l1-12.3l1.7-1l-0.7,33.3c0,0,0.7,1.3,2.7,1.7c2,0.3,16.7,0.7,16.7,0.7l26.7,0.3
		c0,0,7.3,1,8.7,0.7c1.3-0.3,2.3,3.3,2.3,3.3l-0.3,8.7l-1.3-8.7l-2.7-1l-35-0.7l-13-0.3c0,0-4,0.3-6-1.7c-2.5-2.5-1-5.3-1-5.3
		l-0.3-15.3h-10.7l-7,2.3L374.7,685.3z"/>
	<polygon class="st8" points="451.7,720.7 449.5,720.7 449.5,708.8 451.7,709.7 	"/>
	<path class="st8" d="M405.7,706.3c0,0-0.7-0.7,0.3-2.7s1.7-2.3,1.7-2.3l1.2,1l-1.7,2.2l0.7,11.3h0.8l-0.3,1.7l-3.3-0.3l0.2-1.7h0.7
		L405.7,706.3z"/>
	<path class="st8" d="M426.2,706.5l-0.3-4.2c0.7-0.7,0.7-4.8,0.7-4.8l2.7,0.3l-0.2,3.8l0.8-0.2l-0.2,4.5L426.2,706.5z"/>
	<path class="st8" d="M380.3,806l1.7-88.7l95.5,4.2l-0.3,40.8l-3.3-0.2l0.8-37.8l-89.2-3.5l-1.5,82.8l2.3-3.7h0.8l-0.2,10h-1.3v-2.2
		c0,0-2.7,0.5-4.3-0.3C379.7,806.7,380.3,806,380.3,806z"/>
	<path class="st8" d="M404,746.5v-29.2c0,0,2.2-0.3,3-0.3s1.3,0.5,1.3,0.5L408,747L404,746.5z"/>
	<polygon class="st8" points="406.7,712.5 424,713.2 425.5,713.7 425.5,716.7 423.7,717 423.5,714.7 406.5,714 	"/>
	<path class="st8" d="M383.5,760.2l11.3,0.7c0,0,1,1,2.5-0.3s-0.8-1.3-0.8-1.3l0.2-15l0.7-1l-0.3-4.3l-2.3-0.5l-0.3-3.2l2.7-0.3
		l-0.5-2.3l1.7-0.2l-0.2-4.8l1.3,0.2v1l2-0.3l0.3,1.7l-2,0.3v2.2l1,0.5v2l7.5,0.2l1.2,1l1-0.2v-1.3l1.7,0.3l0.5-13.7l1.8,0.3
		l-0.5,11.5c0,0,2.5-0.8,3.7,0c1.2,0.8,0.8,2,0.8,2l1.5,0.7l22.3,0.7l0.8-1.8l5,0.3c0,0,1,2,1,2.7c0,0.7-0.7,2.5-1,3.2
		c-0.3,0.7-4.3,0.8-4.3,0.8s-1,0.3-1.2-0.2s-0.7-2.8-0.7-2.8l-22-0.7c0,0-0.3,1.5-1.5,1.8c-1.2,0.3-4.3,0.5-4.3,0.5l-3.5,0.2
		l-10.8-0.3l0.8-0.8l-0.2,4.2l-0.2,2.8l9.5,1l0.2,6.5l-2.5,0.3l0.3-5.7h-7.2l-0.3,11.8c0,0-0.2,3.2-1.8,3.2
		c-1.7,0-14.7,0.2-14.7,0.2L383.5,760.2z"/>
	<polygon class="st8" points="412.7,749.8 474.3,751.7 474.7,748.8 412.8,747.7 	"/>
	<path class="st8" d="M466.7,736.3l-0.7-17.2l-0.8-2.2l-2.8-0.7l-3.7-0.2l0.7,12.8l-0.5,2.3l0.2,18.2h-2l0.2-19.7l0.5-1.5L457,716
		l-0.2-1.3l4.5-0.3l3.5,0.8l2.2,1.8l0.5,2.5l0.3,16l1.8,0.2c0,0,0.7,1.2,0.3,3.2s-0.2,5-0.2,5h-6l-0.3-2.3c0,0-1.2-1.2-1.2-2.3
		c0-1.2,0.5-2.8,1.5-3C464.8,736,466.7,736.3,466.7,736.3z"/>
	<path class="st8" d="M467.7,737.8c0,0,12.8,0.2,12.5,0.3c-0.3,0.2,0.3-16.5,0.3-16.5l1.3-1.2l-1.5-1v-1l1.2-0.3L482,708
		c0,0-0.2-1.2-0.5-2s0.8-0.8,0.8-0.8s1.3,0.7,1.7,2c0.3,1.3-0.2,10.7-0.2,10.7l0.7,1.2l-0.3,1.2l1.2,1.2l-0.7,16.5h11l1.5,2l-1,1.8
		l-28.8-1.2L467.7,737.8z"/>
	<path class="st8" d="M418.7,761.3l-0.2-20c0,0,0.3-0.8,1.3-1c1-0.2,1.8,1.3,1.8,1.3l0.3,20.7l-3.7,0.5L418.7,761.3z"/>
	<polygon class="st8" points="420,741.5 419.8,721 421,721 420.7,741.3 	"/>
	<polygon class="st8" points="413.8,706.5 424.7,707.3 424.3,701.8 422.3,701.8 422.2,703.5 417.5,704 416.8,705.5 	"/>
	<polygon class="st8" points="328.8,513.8 395.7,517.5 395.5,518.7 329.3,515.2 	"/>
	<polygon class="st8" points="331.2,521.5 394.8,525.2 394.8,526.2 331.3,522.7 	"/>
	<path class="st8" d="M350.8,528c0.8,0,14.8-3.7,14.8-3.7l-2.7-0.5l-12.3,2.8L350.8,528z"/>
	<polygon class="st8" points="382.2,528.8 394.8,526.2 392.2,525.8 382.3,527.7 	"/>
	<polygon class="st8" points="392,518.5 391.8,534 392.7,534 393,517.7 	"/>
	<polygon class="st8" points="343,489 394.5,477.2 397.5,477.3 397.3,478.7 344.2,490.3 	"/>
	<path class="st5" d="M188,568.3l10.8-1.8l16.5-1.3h18.5l19.3-1h18l29,1.5c0,0,0.8,1.3,0,1.3s-29.3-1-29.3-1l-17.8-0.3l-19.8,1.3
		l-18.5,0.3l-16,0.8l-11,1.8L188,568.3z"/>
	<path class="st5" d="M188,576.5l10.8-1.8l16.5-1.3h18.5l19.3-1h18l29,1.5c0,0,0.8,1.3,0,1.3s-29.3-1-29.3-1L253,574l-19.8,1.3
		l-18.5,0.3l-16,0.8l-11,1.8L188,576.5z"/>
	<polygon class="st5" points="191.8,568.5 191.8,586 193,585.8 193.5,568.5 	"/>
	<polygon class="st5" points="232.3,567.3 232.3,584.8 233.5,584.5 234,567.3 	"/>
	<polygon class="st5" points="298.5,566.5 298.5,584 299.8,583.8 300.3,566.5 	"/>
</g>
<g id="Layer_2">
	<path class="st2" d="M347.3,728.2c0-9.8-4.7-17.7-10.7-18.4v-0.4H331c0-1.4,0-2.7,0-3.7c0-11.4,1.3-61.4,2.1-100.7
		c0-2.4,0.1-4.7,0.1-7c0.1-2.8,0.1-5.5,0.2-8.1c0-0.4,0-0.8,0-1.3c0-2.4,0.1-4.7,0.1-6.9c0-0.5,0-1,0-1.5
		c0.2-11.3,0.2-19.8,0.1-23.2c-0.2-5.6-0.6-12.4-1.1-19.1c-0.2-2.7-0.4-5.4-0.7-8c-0.9-8.7-2.2-16.3-4.2-19.5
		c-4-6.7-8-11.7-19.3-19.3s-14-6-18-8.7S287,473,287,473l0.7-30.7c0,0-0.7-10.3-1.3-20.7s-3.3-14.3-8-16.7s-6.7-2-10,0
		c-3.3,2-7.3,15.3-7.3,15.3l-2.7,24.7c0,0,1.3,22,0,28c-1.3,6-1.7,3.7-11.3,8.7c-9.7,5-21.3,16-28.7,25.3
		c-7.3,9.3-8.7,23.3-8.7,23.3l-1.3,57.3c0,0-4,210-4.7,212.7l0.7,32.7l126-9.3c0,0,0.3-42.4,0.5-77h5.9v-0.1
		C342.6,745.9,347.3,737.9,347.3,728.2z"/>
	<path class="st2" d="M386,575l-5-3l3-259h-17c0,0,0,125-1,128v132l-5.8,0.8L356.8,691c0,0-2,139.5-2.5,140.3l31.3,5V648l-0.3-7.8
		L386,580V575z"/>
	<polygon class="st2" points="68,421 65,421 66,365 65,364 65,362 64,361 85,354 157,340 157,342 156,343 156,411 156,415 170,416 
		170,844 57,844 57,756 62,755 60,751 	"/>
	<g>
		<path class="st9" d="M1089.1,469.9l-2.2,0.1l-4.7,0.3l-3.4,0.4l-0.5,1c0,0,1.7,1.7,1.9,1.8c0.3,0.1,4.3,1.3,4.3,1.3l3.9,0.5
			l0.6-0.4L1089.1,469.9L1089.1,469.9z"/>
		<polygon class="st9" points="1116.1,471.8 1113.5,471.1 1107.8,470.6 1106,470.4 1106,475.6 1110.8,474.6 1115.2,473.5 
			1116.3,472.6 		"/>
		<polygon class="st10" points="1100,469.9 1092.3,469.8 1089.1,469.9 1089,470 1089,474.8 1090,474.1 1095.7,473.7 1100.5,474.1 
			1103.5,474.5 1105.8,475.7 1106,475.6 1106,470.4 		"/>
	</g>
	<polygon class="st9" points="1078.3,471.8 1074.3,471.3 1074,466.3 1075.2,464.3 1076.5,464.5 1076.8,465.9 1076.9,468.2 
		1076.8,470.8 1078.8,470.8 	"/>
	<g>
		<path class="st9" d="M1102,460v-24l3-1v-2l-13,1l-1,2l2,1l1,22h-3l-5,1h-6.7c-0.2,0-0.4,0-0.6,0l-8-0.9l-0.1,1l6.4,1
			c0.9,0.1,1.8,0.2,2.8,0.2l6.2-0.3l4-1h4v4.2l8-0.1V460z"/>
		<polygon class="st11" points="1094,464.2 1094,464.9 1102,464.9 1102,464.2 		"/>
	</g>
	<polygon class="st9" points="1109.3,471.4 1109.1,467.8 1107.6,465.5 1106.2,465 1105.9,460.3 1100.3,459.9 1100.4,461.4 
		1104.2,461.7 1104.3,466.3 1106,467.3 1107,467.5 1107.4,469.3 1107.4,472.1 	"/>
	<polygon class="st5" points="1106,475.6 1106,521.7 1107.7,521.8 1107.7,523.2 1105.8,523.2 1105.8,571.7 1107.5,572.2 
		1107.7,573.2 1105.8,573.3 1106,621.3 1107.3,621.5 1107.3,623.3 1105.7,623.2 1105.8,646 1107.5,646 1107.2,646.7 1105.8,647.2 
		1105.7,695.7 1107.5,695.7 1107.3,697.2 1104.3,697 1104.7,646.2 1105.2,617.3 1104.8,569.5 1104.5,522.8 1101,523 1100.8,521.5 
		1104.3,521.8 1104.8,476.2 	"/>
	<polygon class="st5" points="1103.9,460.6 1103.9,458.8 1103.4,458.3 1103.7,453.1 1104.3,452.6 1104.2,448.5 1103.7,448.1 
		1103.6,441.2 1100.9,440.3 1100.8,441.2 1102.3,442 1102.7,451.9 1101.2,451.7 1101.3,452.3 1102.7,452.6 1102.3,457.2 
		1100.4,457.2 1100.4,458.1 1102.3,458.3 1102.8,459.3 1102.8,462.3 1101.4,462.4 1101.3,463.2 1103.8,463.3 1105.2,462.8 
		1105.2,462.2 1103.8,462.2 	"/>
	<polygon class="st5" points="1114.8,470.8 1117.2,470.6 1116.8,469.7 1116.8,467.3 1114.9,467.2 1115.3,466.2 1116.7,466.2 
		1117,465.6 1117.9,465.7 1117.8,463.8 1118.8,463.8 1118.9,465.6 1120.1,465.7 1120,471.3 1115.1,471.3 	"/>
	<path class="st5" d="M1094.8,604.1l-10.4-0.3l0.1-10.4h7.8l-0.1-0.8l-7.8-0.1l0.8-10.9l6.9,0.2l0.1-0.9h-7.1l-0.3-7.8l7.8-0.1
		l-0.2-0.8l-7.8-0.1l0.3-8.5c0,0,7.2,0.3,7.5,0.3c0.3,0-0.3-0.8-0.3-0.8l-7.2-0.2l0.2-10.3l4.9,0.3l0.1-1l-5.1-0.2l0.2-1.5l3,0.2
		l5.3,0.5l0.2-0.8l-0.2-1.5l-5.3-0.1l0.3-4.1h4.6l1,0.4l-0.3-5.8l-1,0.1l0.3,4.8l-4.8-0.3v-3.7h-4.5l-0.2,1.1l0.8,0.2l-0.2,10.5
		l-0.7,0.3l0.7,0.6l-0.3,10.1l-0.2,1.8l-0.2,7.7l0.3,0.9l0.5,7.5l-0.7,0.3l0.1,1.1l0.4,0.1l-0.8,11.5c0,0,0,10.8,0,11.2l11.3,0.3
		l4.7,1l0.1-1L1094.8,604.1z M1085.3,540.6l2.3,0.1l-0.2,2.6h-2.3L1085.3,540.6z M1085.2,544.5l2.8-0.2l-0.2,5.2l-2.8-0.4
		L1085.2,544.5z"/>
	<path class="st9" d="M1108.7,781.8l0.3-42.5l-1.7-8.3l-2.3-8V539l-4-12v-29l5-3v-19.4l-0.3,0.1l-2.3-1.2l-3-0.4l-4.8-0.4l-5.7,0.4
		l-1,0.7V496l4,2l-0.2,29.9L1090,538l-1,48v74c0,0,0,61,0,62l-1.8,8.3l-2.3,8.3v41.8l-0.7,9l-0.8,34.7v60.7l24.8,0.3l0.7-60.7
		l0.5-34.7L1108.7,781.8z"/>
	<path class="st9" d="M1138.3,627.9c-0.2-1.4-0.8-1.9-1.7-2.3c-0.8-0.4-4-0.2-4-0.2l-9.3-0.5c0,0-12.1-0.3-13-0.3
		c-0.9,0-1.4,0-1.7-0.7c-0.3-0.7,0-2.2,0-2.2l0.4-148.3l-1.8-0.3l-0.1,4.6l-2.6-0.4v1.1l2.7,0.3l0.2,2.8l-1.7-0.3h-1.5l-0.3,1.1h1.4
		l1.9,0.4l-0.4,19.8l-0.3,21l-0.3,24.6l0.1,24.4l-0.3,14.7l0.3,35.8c0,0,0.2,1.4,0.4,2.4l-4-0.4l0.3,2l19.3,1.6l0.5,0.4l0.4,5.4
		l-0.8,1.1l0.6,0.4v5.6l-0.8,0.4l-18.1-0.8l-0.1,1.8l3.5,0.2l-0.2,0.2l-0.5,2.2l-0.8,51.4l-0.4,27.4l0.8,2.1l2.6,4.5l0.8,1.5
		l-0.3,14.8l-0.1,33.8c0,0,0.1,2,0.5,2.3c0.4,0.3,2.2,0.3,2.2,0.3l5.5,0.3l-0.3,10.2l3.6-0.3l0.1-11.3v-3.8l-0.8-0.3l-2.6,0.3
		l-0.1,3.3l-5.5-0.4l0.1-34.3l-0.3-16.3l-3.3-5.8l-0.4-1.2l0.4-15.6l0.3-62.8l0.2-0.9l0.4-0.2l2.6,0.2c0,0,7.3,0.7,7.7,0.7
		c0.4,0,4.8,0.1,5.3,0.2c0.6,0.1,8.1,0.4,9.1,0.4s2.3-0.2,3-0.5c0.8-0.3,0.6-1.7,0.6-1.7l-0.1-7.8l-0.1-0.8c0,0,0.5-0.9,0.5-2.8
		C1138.4,630.9,1138.5,629.3,1138.3,627.9z M1132.3,628.1c0,0,2.6,0.3,3,0.5s0.3,2.2,0.3,2.2v2.3l-0.4,1.4l-1.9,0.3h-8.3v-5.9
		l-0.1-1.3l0,0l1.7-0.1L1132.3,628.1z M1135.1,643l-0.8,0.4l-8.8-0.3l0.1-1.8l-0.4-5.4l8.5-0.4l1.4-0.1l0.1,1.3V643z"/>
	<polygon class="st5" points="1093,615.9 1095.4,615.4 1097.9,615.4 1100.1,616 1100,617.3 1097.8,616.6 1095.1,616.6 1092.6,617.5 
			"/>
	<polygon class="st5" points="1093,627.9 1095.4,627.4 1097.9,627.4 1100.1,628 1100,629.3 1097.8,628.6 1095.1,628.6 1092.6,629.5 
			"/>
	<path class="st5" d="M1094.6,639.8l0.5-0.1c0.2,0,0.4-0.1,0.5-0.1h1.9c0.2,0,0.5,0,0.7,0.1l1.9,0.5l-0.1,1.3l-1.9-0.5
		c-0.2-0.1-0.5-0.1-0.7-0.1h-1.8c-0.3,0-0.6,0-0.9,0.1l-2.1,0.7l0,0C1092.9,640.8,1093.6,640,1094.6,639.8z"/>
	<polygon class="st5" points="1092.9,648.9 1095.3,648.4 1097.8,648.4 1100,649 1099.9,650.3 1097.6,649.6 1095,649.6 1092.5,650.5 
			"/>
	<path class="st5" d="M1092.4,657.6v1.4l1.1-0.3c1.1-0.2,2.2-0.3,3.3-0.1l2.4,0.4v-1.6l-2.4-0.3c-1-0.1-2.1-0.1-3.1,0.2
		L1092.4,657.6z"/>
	<path class="st5" d="M1092.6,669.3v1.4l1.1-0.3c1.1-0.2,2.2-0.3,3.3-0.1l2.4,0.4v-1.6l-2.4-0.3c-1-0.1-2.1-0.1-3.1,0.2
		L1092.6,669.3z"/>
	<path class="st5" d="M1092.6,681.1v1.4l1.1-0.3c1.1-0.2,2.2-0.3,3.3-0.1l2.4,0.4V681l-2.4-0.3c-1-0.1-2.1-0.1-3.1,0.2L1092.6,681.1
		z"/>
	<path class="st5" d="M1092.5,692.4v1.4l1.1-0.3c1.1-0.2,2.2-0.3,3.3-0.1l2.4,0.4v-1.6l-2.4-0.3c-1-0.1-2.1-0.1-3.1,0.2
		L1092.5,692.4z"/>
	<path class="st5" d="M1088.8,604.4c-0.4,0.1-8.8,0.3-8.8,0.3l-0.1,7.9c0,0-0.1,2.5,0.3,2.6s2.3-0.1,2.3-0.1l9.6-0.1h1.4V614
		l-1.6-0.1l-9.3,0.4h-2v-2l0.3-2.8l10.4,0.6l0.3-1l-10.4-0.5l-0.3-3.3h13.1l3.3,0.4l0.1-0.6l-3.9-0.6L1088.8,604.4z"/>
	<path class="st5" d="M1090,625l-1.3,1.4l-5.5,1l0.4,14c0,0-0.4,1.1,0.8,1.3s5.3,0,5.3,0l0.4-1l-4.9,0.3l-0.6-0.3l-0.3-0.8L1084,628
		l5-0.6l1.9-1.3L1090,625z"/>
	<path class="st5" d="M1092.2,539.8v-1c0,0,2.2-0.7,4.2-0.7s4.3,0.7,4.3,0.7v1.2c0,0-1.5-1-3.8-0.8
		C1094.5,539.3,1092.2,539.8,1092.2,539.8z"/>
	<path class="st5" d="M1093.8,528.8v-1c0,0,1.7-0.7,3.2-0.7s3.3,0.7,3.3,0.7v1.2c0,0-1.1-1-2.9-0.8
		C1095.6,528.3,1093.8,528.8,1093.8,528.8z"/>
	<path class="st5" d="M1093.7,517v-1c0,0,1.7-0.7,3.2-0.7s3.3,0.7,3.3,0.7v1.2c0,0-1.1-1-2.9-0.8
		C1095.5,516.5,1093.7,517,1093.7,517z"/>
	<path class="st5" d="M1093.5,505.3v-1c0,0,1.7-0.7,3.2-0.7s3.3,0.7,3.3,0.7v1.2c0,0-1.1-1-2.9-0.8
		C1095.3,504.8,1093.5,505.3,1093.5,505.3z"/>
	<path class="st5" d="M1093.3,496.3v-1c0,0,1.7-0.7,3.2-0.7s3.3,0.7,3.3,0.7v1.2c0,0-1.1-1-2.9-0.8
		C1095.1,495.8,1093.3,496.3,1093.3,496.3z"/>
	<path class="st5" d="M1093.3,484.7v-1c0,0,1.7-0.7,3.2-0.7s3.3,0.7,3.3,0.7v1.2c0,0-1.1-1-2.9-0.8S1093.3,484.7,1093.3,484.7z"/>
	<polygon class="st5" points="1099.8,549.2 1099.3,539.2 1099.3,527.8 1098.8,516 1098.8,504.5 1099,495.7 1098.8,483.3 1098.8,473 
		1097.7,472.8 1098.2,516.3 1098.7,527.8 1098.3,538.8 1098.7,548.7 1093.5,548.5 1093.5,550.8 1097.7,550 1099.7,550.3 	"/>
	<polygon class="st12" points="1098.3,605 1097.5,693 1098.3,693.2 1098.9,605.3 	"/>
	<g>
		<polygon class="st12" points="1086,465.3 1080.3,466 1079.2,466.5 1079.2,466.8 1082.1,467.3 1091.1,467.9 1091.6,467.9 1094,466 
			1094,464.9 1093.7,464.9 		"/>
		<path class="st12" d="M1104.9,467.9h0.6l8.2-0.7l-0.1-1.3c0,0-1.6-0.3-1.9-0.3s-6.3-0.8-6.3-0.8l-3.4,0v0.1L1104.9,467.9z"/>
		<polygon class="st5" points="1091.1,467.9 1082.1,467.3 1079.2,466.8 1079.2,466.5 1080.3,466 1086,465.3 1093.7,464.9 
			1094,464.9 1094,464.2 1093.8,464.3 1086,464.5 1080.2,465.2 1078.3,465.9 1078.2,471 1079.4,471.2 1079.2,467.4 1082.3,467.9 
			1090.8,468.5 1091.6,467.9 		"/>
		<path class="st5" d="M1116.3,460.8l8.2-0.1l-0.2-1.3l-9.4,0.3l-0.4,1.7l-0.5,2.1v1.6l-2.1-0.3l-6.3-0.6l-3.5,0v0.7l3.4,0
			c0,0,6,0.8,6.3,0.8s1.9,0.3,1.9,0.3l0.1,1.3l-8.2,0.7h-0.6l0.6,0.6l0.3,0l8-0.6l0.2,1.8l-0.1,1.1v2l2.3-0.2l-1.1-2.3l0.5-5
			l-0.3-1.4h1.6L1116.3,460.8z"/>
		<polygon class="st5" points="1105.5,468.5 1104.9,467.9 1102,465 1102,464.9 1094,464.9 1094,466 1091.6,467.9 1090.8,468.5 
			1089.1,469.9 1092.3,469.8 1100,469.9 1106,470.4 1106,469 		"/>
	</g>
	<path class="st5" d="M956.5,844.3v-1.8c0,0,17.6-0.6,38.9-0.4s36.3,1.6,36.3,1.6v1.3c0,0-17.6-1.3-36.3-1.4
		S956.5,844.3,956.5,844.3z"/>
	<path class="st5" d="M956.5,775.8l-0.1-1.6c0,0,9-2.4,37.6-1.8s37.6,2,37.6,2v2c0,0-18.9-1.8-37.5-2.3S956.5,775.8,956.5,775.8z"/>
	<path class="st5" d="M956.4,697.5l0.3,1.6c0,0,12.8-1.8,39.4-1s37.3,2.1,37.3,2.1l0.3-2.4l-1-0.4c0,0-17.5-1.9-37.4-2
		S956.4,697.5,956.4,697.5z"/>
	<path class="st5" d="M959.3,623.3c0,0,8.8-2.3,36.3-1.9s35.5,2.6,35.5,2.6l1.8-1.5c0,0-17.4-2.6-36.9-2.6s-38.4,2.1-38.4,2.1
		L959.3,623.3z"/>
	<path class="st5" d="M1031.5,852.2l-0.2-2c0,0-17.3-1-33.2-1c-15.8,0-41.3,0.8-41.3,0.8v1.3l17.3-0.5l-0.3,58.2l0.2,9.2h2l-0.2-9.3
		v-30.3v-27.7l22.5-0.2l28.7,1l-1.5,59.3h1.7l1.2-59.3L1031.5,852.2z"/>
	<path class="st5" d="M956.7,882l-0.3-1.7c0,0,17-1.2,36.8-0.8c19.8,0.3,35.5,1.3,36.8,1.5s0,1.7,0,1.7s-15.3-1.5-36.7-1.7
		C972,880.8,956.7,882,956.7,882z"/>
	<g>
		<path class="st9" d="M961.5,917.2h2.3l0.5-7.5c0,0,0.2-1.3,2-1.3c1.8,0,2.2,1,2.2,1l-0.2,7.7l60.7,1.3l1.3-69.3l0.3-148.8l2-1
			v-1.8l-1.5-0.5v-73l1.8-1.5l0.3-1.5l-4.3-1.5l-0.3-2.3l-1.5-0.5c0,0-0.8,2.1-1,2.5c-0.1,0.3-19-2.3-27.3-2s-33.3,0.8-33.3,0.8
			l0.3-3c0,0-0.3-1.3-1.3-1.3s-1.3,1.3-1.3,1.3s0,4-1,4s-4.8,1.3-4.8,1.3v1.8l1.8,1.3l-0.5,70l-1.3,195l-0.8,19.5L956,911l-0.5,46
			l6.3,0l-0.2-28L961.5,917.2z"/>
		<polygon class="st5" points="1057,957.5 961.8,957 961.8,957.7 		"/>
	</g>
	<polygon class="st5" points="961.5,959.5 961.7,927.5 1056.5,930.7 1056.7,931.7 962.5,928.8 962.5,957.7 	"/>
	<polygon class="st5" points="969.7,958.8 969.5,928.3 970.3,928.3 970.7,959 	"/>
	<polygon class="st5" points="1008.5,930 1008.7,958.2 1010,958.2 1009.7,929.5 	"/>
	<polygon class="st5" points="962.3,939.8 969.8,940.2 970.2,939.3 1055.7,942 1055.8,943.3 972,940 970,940.8 961.8,940.8 	"/>
	<polygon class="st5" points="960.2,917.2 960,918.3 1056.2,921 1056.3,919.5 	"/>
	<polygon class="st5" points="966.2,910 965.5,911 966.5,912.3 967.3,911.2 	"/>
	<path class="st9" d="M1055.5,919.8h-3v-7c0,0-1-1.5-2.3-1.5s-2,0.8-2,0.8v7.8l-19.3-1.5l28,39.3L1055.5,919.8z M1050.5,914.7
		l-1-0.8l1-1.5l0.8,1.2L1050.5,914.7z"/>
	<path class="st5" d="M366.1,314.1l8.1-0.5l10.1,0.6v-2.1l-9.5-0.4c0,0,0.5-1.6-1-1.6s-1.4,1.5-1.4,1.5l-6.9,0.8L366.1,314.1z"/>
	<path class="st5" d="M366.4,333.5l-0.2-0.8c0,0,3.2-0.5,9.1-0.4c5.9,0.1,8.7,0.8,8.7,0.8v0.8c0,0-4.3-0.7-8.6-0.7
		C371.1,333.2,366.4,333.5,366.4,333.5z"/>
	<path class="st5" d="M365.3,393l-0.2-1.8c0,0,4.2-0.8,10.1-0.7c5.9,0.1,8.7,0.8,8.7,0.8l-0.1,2.3c0,0-4.2-1.1-8.5-1.2
		C369.1,392.3,365.3,393,365.3,393z"/>
	<path class="st5" d="M366.4,353.1l-0.2-0.8c0,0,3.2-0.5,9.1-0.4c5.9,0.1,8.7,0.8,8.7,0.8v0.8c0,0-4.3-0.7-8.6-0.7
		C371.1,352.8,366.4,353.1,366.4,353.1z"/>
	<path class="st5" d="M366.1,372.1l-0.2-0.8c0,0,3.2-0.5,9.1-0.4c5.9,0.1,8.7,0.8,8.7,0.8v0.8c0,0-4.3-0.7-8.6-0.7
		C370.8,371.8,366.1,372.1,366.1,372.1z"/>
	<path class="st5" d="M366.3,412.3l-0.2-0.8c0,0,3.2-0.5,9.1-0.4c5.9,0.1,8.7,0.8,8.7,0.8v0.8c0,0-4.3-0.7-8.6-0.7
		S366.3,412.3,366.3,412.3z"/>
	<path class="st5" d="M365.8,432.6l-0.2-0.8c0,0,3.2-0.5,9.1-0.4c5.9,0.1,8.7,0.8,8.7,0.8v0.8c0,0-4.3-0.7-8.6-0.7
		S365.8,432.6,365.8,432.6z"/>
	<path class="st5" d="M365.5,492.8l-0.2-0.8c0,0,3.2-0.5,9.1-0.4c5.9,0.1,8.7,0.8,8.7,0.8v0.8c0,0-4.3-0.7-8.6-0.7
		S365.5,492.8,365.5,492.8z"/>
	<path class="st5" d="M365,551.6l-0.2-0.8c0,0,3.2-0.5,9.1-0.4c5.9,0.1,8.7,0.8,8.7,0.8v0.8c0,0-4.3-0.7-8.6-0.7
		S365,551.6,365,551.6z"/>
	<path class="st5" d="M364.8,573.3l-0.2-0.8c0,0,3.2-0.5,9.1-0.4c5.9,0.1,8.7,0.8,8.7,0.8v0.8c0,0-4.3-0.7-8.6-0.7
		S364.8,573.3,364.8,573.3z"/>
	<line class="st12" x1="10.7" y1="401.7" x2="11.7" y2="438.3"/>
	<path class="st5" d="M197,517.3v-5l-4.3-1.7l0.7-3.3L163,505l1-87l-4.7-1.3v1.7l-8.7-1l0.3-1.7h-3l-0.7,1.3l-11.3-0.7l0.3-1.7
		l2-0.3v-2.7l-7.7-0.7l-4,1.7l-0.3,3.7l-20.3-2l-2,79.7l0.7,10l-2,84.7l-5.3,0.3v4.3l95,4v-5.7l-83.7-4.7l0.3-74.3L197,517.3z
		 M151,505l-41-1.3l23-37.7h1.7l17,29.7L151,505z M157.7,497c0.3,1-21.3-32.3-21.3-32.3v-3l22.7-33.3C159,428.3,157.3,496,157.7,497
		z M110.7,419.3l48.3,3.3l-1,2l-23,35l-1.3-1l-23-37V419.3z M108.3,498.3l1.7-73.7l21.3,35.7l-0.3,3L108.3,498.3z"/>
	<polygon class="st5" points="170,505 171.8,350 181.3,347.3 181,346.3 179.8,346.3 179.5,344.5 182,344.3 182,343 167.8,346.3 
		167.3,350.8 152.5,350.3 152,354 166.8,354.8 165,506 169.5,506.8 	"/>
	<polygon class="st5" points="94.5,759.8 96.5,679.3 98.3,591.8 100.8,591.5 98.5,649.3 97,724.8 96,761.8 	"/>
	<polygon class="st5" points="78,760.8 80,680.3 84.5,418.8 87,418.5 82,650.3 80.5,725.8 79.5,762.8 	"/>
	<g>
		<polygon class="st12" points="58.7,547 55.7,548.7 55.3,551.7 55.7,596.7 54.3,601.7 50.7,602.3 63.3,605.4 64.8,547.8 62.7,547 
					"/>
		<polygon class="st5" points="50.7,602.3 54.3,601.7 55.7,596.7 55.3,551.7 55.7,548.7 58.7,547 62.7,547 64.8,547.8 64.9,542.7 
			61,542 58.3,542.3 53.7,545.3 51.3,549 50.7,597.3 49.3,598.3 40,601.3 38.3,603.7 39.7,606.3 63.1,611.6 63.3,605.4 		"/>
		<g>
			<path class="st12" d="M43.3,506.7c-1,0.7-1.7,3-2.7,4.3c-1,1.3,1.3,2.7,1.3,2.7s17.3-4.3,19-5.3c0.5-0.3,0.7-0.8,0.9-1.4
				C53.1,506.6,43.9,506.3,43.3,506.7z"/>
			<polygon class="st5" points="65.8,507.1 65.8,507.1 65.8,507.1 			"/>
			<path class="st5" d="M65.9,502.6l-3.9-0.1c0.1,1.8,0.1,3.4-0.2,4.5c1.3,0.1,2.6,0.1,3.9,0.2l0,0L65.9,502.6z"/>
			<path class="st5" d="M61,508.3c-1.7,1-19,5.3-19,5.3s-2.3-1.3-1.3-2.7c1-1.3,1.7-3.7,2.7-4.3c0.5-0.3,9.8-0.1,18.6,0.3
				c0.3-1.1,0.2-2.7,0.2-4.5L47.3,502c0,0-4.7-1-7.3,1s-4.3,4.7-3.7,7.3c0.7,2.7-0.7,5.3,1.7,6.7c2.3,1.3,5,0,8-1.3
				c3-1.3,12.7-2.7,12.7-2.7l6-2.7l1.1-3.2c-1.3-0.1-2.6-0.1-3.9-0.2C61.7,507.6,61.5,508.1,61,508.3z"/>
			<polygon class="st5" points="79,498.7 83.3,499.3 83.7,495.3 71.9,495.3 71.9,498.7 			"/>
			<path class="st5" d="M77.7,507.7l1.7-4.7l-7.5-0.2l-0.1,4.6C75.2,507.5,77.7,507.7,77.7,507.7z"/>
			<path class="st5" d="M66.1,495.3H66c0,0-4,0.7-4,4.7c0,0.9,0,1.7,0.1,2.5l3.9,0.1L66.1,495.3z"/>
			<polygon class="st5" points="65.9,502.6 66.4,502.6 66,500 70.3,498.7 71.9,498.7 71.9,495.3 66.1,495.3 			"/>
			<polygon class="st5" points="86.8,416.3 85.3,415.3 68,421 66.1,495.3 65.9,502.6 66.4,502.6 66.7,504.7 65.8,507.1 65.8,507.1 
				64.9,542.7 70,543.7 68.7,549.3 64.8,547.8 63.3,605.4 67.3,606.3 69.7,613 63.1,611.6 59.3,764.8 67,765.3 71.7,507.4 
				71.8,502.8 71.9,498.7 71.9,495.3 73.3,423 84.5,420.3 104.5,419.5 105,416.5 			"/>
			<polygon class="st5" points="66.7,504.7 66.4,502.6 65.9,502.6 65.8,507.1 			"/>
			<polygon class="st13" points="66.7,504.7 66.4,502.6 65.9,502.6 65.8,507.1 			"/>
		</g>
	</g>
	<polygon class="st2" points="447,709 449,661.5 451,654.5 451,625 448,618 448,585 453.5,571 452,536.5 449,536.5 448,523.5 
		472.5,522.5 473,534 469.5,537.5 465.5,538.5 467,573.5 473,588 473,618 468.5,625 467,653.5 471,661.5 470,778.5 447,777.5 	"/>
	<polygon class="st5" points="445.7,715.7 447.7,628 446.3,625 445.3,623 445.7,593.7 444.7,589 446,588.7 445.7,580.7 450.7,573.3 
		450,568 450.7,541.7 454,539.7 454.7,541.3 452.7,543 451.7,568 453,572.7 453,575 448,581 449.3,588.7 449.3,593 448.7,621.3 
		451,625 449,743 445.7,742.7 	"/>
	<path class="st5" d="M473,591.3c0,0-1.3,23.7-7.7,29c-6.3,5.3-15,19.7-16.7,28c-1.7,8.3,1,2.3,1,2.3s0-5.1,17-28.7
		c11.3-15.7,8.3-31.3,8.3-31.3L473,591.3z"/>
	<path class="st5" d="M468,636.7c0,0,1.7,23.7-4.7,29c-6.3,5.3-15,19.7-16.7,28c-1.7,8.3,1,2.3,1,2.3s0-5.1,17-28.7
		C476,651.7,470,636,470,636L468,636.7z"/>
	<path class="st5" d="M469,676.3c0,0,0.7,23.7-5.7,29c-6.3,5.3-15,19.7-16.7,28c-1.7,8.3,1,2.3,1,2.3s0-5.1,17-28.7
		c11.3-15.7,6.3-31.3,6.3-31.3L469,676.3z"/>
	<polygon class="st5" points="454.7,759.7 455,625.7 453.7,620.3 454.7,581 453.3,578.7 454.7,555 457,551.7 457,544 457.3,543.6 
		458.7,541.7 460,543 459.3,544.3 458.7,551.3 456.7,555.3 455.3,577.7 456.7,580.7 456,619 457.7,625 456.7,762.7 	"/>
	<path class="st5" d="M479.7,571.3C479,572,471,572,471,572s-26.7,1.7-30,1s-4.3-2.3-4.3-2.3l0.3-2.7l10.7-0.7h15l11.7,0.7l5.3,0.7
		V571.3z"/>
	<path class="st5" d="M438.1,568.6c0-0.4,0.4-9.1,0.4-9.1l1.3-1.1l-0.6,10.5L438.1,568.6z"/>
	<polygon class="st5" points="442.1,568.5 442,560.1 442.9,559.9 443,568.6 	"/>
	<polygon class="st5" points="470.6,568.6 470.5,560.3 471.5,560.3 471.5,568.6 	"/>
	<path class="st5" d="M474.3,569c0-0.4-0.5-9-0.5-9l1.1-0.4l0.1,9.4H474.3z"/>
	<polygon class="st5" points="479.4,558.4 478.5,559.5 478.5,569.3 479.5,570.5 	"/>
	<path class="st5" d="M479.4,558.4c-1.5-1.5-15.5-2.5-19.5-2.4s-9.9,0.9-15.6,1.3s-7.4,2.4-7.4,2.4l3.8,0.9l6-0.1l28.5,0.1
		C475.1,560.5,480.9,559.9,479.4,558.4z M474,559.6l-26.2-0.1l-5.5,0.1l-3.4-0.5c0,0,1.5-1.2,6.8-1.4s10.7-0.7,14.3-0.7
		s16.5,0.5,17.9,1.4C479.3,559.3,474,559.6,474,559.6z"/>
	<path class="st5" d="M479.4,563.3c-1.5-1.5-15.5-2.5-19.5-2.4s-9.9,0.9-15.6,1.3s-7.4,2.4-7.4,2.4l3.8,0.9l6-0.1l28.5,0.1
		C475.1,565.4,480.9,564.8,479.4,563.3z M474,564.5l-26.2-0.1l-5.5,0.1l-3.4-0.5c0,0,1.5-1.2,6.8-1.4s10.7-0.7,14.3-0.7
		s16.5,0.5,17.9,1.4C479.3,564.1,474,564.5,474,564.5z"/>
	<polygon class="st5" points="66,365 86.3,358.7 156,343 157.7,341.8 157.7,339.2 84.8,353.2 62.8,360.7 62.8,361.7 65,362 65,364 	
		"/>
	<g>
		<polygon class="st12" points="924,393.3 924.5,383.5 921.5,382.3 925,374.5 925.8,359.8 924.3,358.9 920.8,360.7 921.2,387.5 
			923.2,390 923.3,403 925.2,403.1 925.3,402.3 		"/>
		<path class="st9" d="M924.5,356.7l0.7,1.8l-0.8,0.4l1.4,0.8l-0.8,14.8l-3.5,7.8l3,1.3l-0.5,9.8l1.3,9l0,0.9l0.3,0l10.8-0.7
			l1.5-9.3v-10c0,0,3.8-0.3,3.8-2S938,374,938,374l-0.5-15.3l2.5-1c0,0-0.3-3.8-1.8-4.8s-3.5-0.5-6.8-0.5s-5,0-6.3,0.8
			c-0.9,0.6-1.6,3-1.8,4.2l0.3-0.2L924.5,356.7z"/>
		<path class="st9" d="M944.5,763.8c-0.5-2.3-5-16.5-5-16.5l1-195.3l-4.5-15.8l0.2-130.1c-0.2,0-0.2,0-0.2,0l-10.8-0.3l-2.4,130.4
			l-3.8,16L916.8,747l-4.5,16.5l1.3,128.8l31,1C944.5,893.3,945,766,944.5,763.8z"/>
		<path class="st5" d="M939.2,404.8c0.5-1.7-2.9-2.3-2.9-2.3l0,3.7C936.9,406.2,938.8,406.2,939.2,404.8z"/>
		<path class="st5" d="M923.3,403l-0.2-13l-2-2.5l-0.3-26.8l3.5-1.8l-1.1-0.7c0,0,0.1-0.3,0.2-0.8l-3.6,2.7l0.3,28.5l1.5,1.7
			l0.3,12.8l-1.2,0.5l-0.2,1.2l1.3,0.5l2.8,0.5l0.3,0l0.1-2.7L923.3,403z"/>
		<path class="st9" d="M924.5,356.7l-0.8,0.6l-0.3,0.2c-0.1,0.5-0.2,0.8-0.2,0.8l1.1,0.7l0.8-0.4"/>
		<path class="st9" d="M936.2,406.2l0-3.7l-10.8,0.7l-0.3,0l-0.1,2.7l10.8,0.3C936,406.2,936.1,406.2,936.2,406.2z"/>
	</g>
	<path class="st9" d="M922.7,405l-1.8,2.5v122c0,0,0.8,2,0.2,2.8c-0.7,0.8-3.5,3.3-4.3,5c-0.8,1.7-1,20-1,20L914.5,666l-0.3,1.5
		l-2.3,0.3c0,0-1.5-0.2-1.3,1c0.2,1.2,1.8,1.7,1.8,1.7h2l2.2-0.3c0,0,0.8,0.7,1.2-4c0.3-4.7,1.3-108.7,1.3-108.7l0.3-18.2l4-5.7
		l0.5-4.2l0.3-120.3l0.7-4.2H922.7z"/>
	<path class="st5" d="M925.6,412.9l-1.8,2.5v122c0,0,0.8,2,0.2,2.8c-0.7,0.8-3.5,3.3-4.3,5c-0.8,1.7-1,20-1,20l-1.2,108.7l-0.3,1.5
		l-5.3,0.8c0,0-1.5-0.2-1.3,1c0.2,1.2,1.8,1.7,1.8,1.7l5-0.4l2.2-0.3c0,0,0.8,0.7,1.2-4c0.3-4.7,1.3-108.7,1.3-108.7l0.3-18.2l4-5.7
		l0.5-4.2l0.3-120.3l0.7-4.2H925.6z"/>
	<path class="st5" d="M914.8,711.5h-3l-1-1.5l1-1.8l2.3-0.5l4.3-0.3l1.8,1.3l0.5,5.8v30l-1,4.8l-3.8,3.3l-0.5,4.8l1.5,147l-2.8,0.3
		l-2-146.8c0,0-0.8-4.8,0.5-6.5s4.3-4.3,4.3-4.3v-2.8V714l0.3-1.8L914.8,711.5z"/>
	<path class="st14" d="M914.8,718.8h-3l-1-1.5l1-1.8l2.3-0.5l4.3-0.3l1.8,1.3l0.5,5.8v30l-1,4.8l-3.8,3.3l-0.5,4.8l1.5,147l-2.8,0.3
		L912,765c0,0-0.8-4.8,0.5-6.5s4.3-4.3,4.3-4.3v-2.8v-30.3l0.3-1.8L914.8,718.8z"/>
	<polygon class="st5" points="68.7,503.3 106.3,493.7 106.3,497.3 69,506.3 	"/>
	<polygon class="st5" points="66,592.3 104.7,585.3 104.3,589.3 66,597 	"/>
	<polygon class="st5" points="66,657.3 102.3,652.7 102,656.7 66,661 	"/>
	<polygon class="st5" points="64,721 100,716.7 99.3,720.3 64,724.7 	"/>
	<g>
		<polygon class="st12" points="186.1,669.6 198.4,657.8 186.3,657.3 		"/>
		<polygon class="st5" points="190.7,647.7 191,645.3 192.7,645.3 192.7,643.7 186.4,643.4 186.4,647.5 		"/>
		<path class="st5" d="M186.4,647.5l-3.4-0.1l-0.1,5.4c1.2,0.1,2.3,0.1,3.4,0.1L186.4,647.5z"/>
		<g>
			<polygon class="st5" points="185.3,551.3 183.1,643.3 93,640 93,644.7 183,647.4 186.4,647.5 186.4,643.4 187.7,553 			"/>
			<path class="st5" d="M182.8,657.2l3.5,0.1l0.1-4.4c-1.1,0-2.2-0.1-3.4-0.1L182.8,657.2z"/>
		</g>
		<g>
			<path class="st5" d="M104.3,649.3l0.3,4.7l78.1,3.2l0.1-4.4C154,651.5,104.3,649.3,104.3,649.3z"/>
			<path class="st5" d="M203,653.7c-0.3,0-7-0.3-16.7-0.7l-0.1,4.4l12.2,0.5l1.9-1.8l1.7,0.7l-1.3,1.2l2.3,0.1
				C203,658,204.3,653.7,203,653.7z"/>
			<polygon class="st5" points="185,670.7 186.1,669.6 186.3,657.3 182.8,657.2 181.3,718.3 98.3,714.3 98,719.3 181.2,722.7 
				179.3,801.7 184.3,800.7 185.4,722.9 187.3,723 188.3,718.7 185.4,718.5 186.1,672 183.7,674.3 			"/>
			<polygon class="st5" points="186.1,669.6 186.1,672 200.7,657.9 198.4,657.8 			"/>
		</g>
		<polygon class="st5" points="200.3,656 198.4,657.8 200.7,657.9 202,656.7 		"/>
		<polygon class="st5" points="185,670.7 183.7,674.3 186.1,672 186.1,669.6 		"/>
	</g>
	<path class="st5" d="M145.3,844.3c0.3-1.3,7.7-349.7,7.7-349.7h2.7l-7.3,353.7L145.3,844.3z"/>
	<path class="st5" d="M784.7,987l0.7-302.3L786,655c0,0,0-1.7,0.7-5.3c0.7-3.7,3.3-3.7,3.3-3.7l3-1l7,0.7l1,2.3l-1.3,3l-5.3-0.3
		c0,0-1.2,0.2-2.5,1.2c-1.3,1-1.2,4.5-1.2,4.5l-0.7,40l-1,62l1,230.3L784.7,987z"/>
	<polygon class="st5" points="790.5,647 790.7,605.3 791.8,604.7 794.3,604.2 794.5,602.7 795.2,596.3 796.2,595.2 795.8,602.7 
		796,603.7 794.8,605.2 792.2,605.7 791.7,606.5 791.8,646.2 	"/>
	<path class="st5" d="M840.8,587.2v-1.3l0.8-0.7l0.7,1.3l0.8,1.5l-0.2,5.7l-0.7,1.8h-4.2c0,0-17.5-0.8-24.2-0.5s-16.3,0.6-16.3,0.6
		l0.1-0.9l16.3-0.9l14.3,0.3l10,0.5h2.7l1-1.3v-5L840.8,587.2z"/>
	<path class="st5" d="M790.7,605.3l1.5-46.8l0.8-13.3c0,0-0.5,0.3-0.5-0.1s0.1-1.1,0.1-1.1s-0.3-1.3,0.9-1.5s6.1,0.1,6.1,0.1l8.6,1
		l3.4,0.1v0.9l-3.5-0.3l-8.6-1c0,0-5-0.5-5.6,0s0.3,1.1,0.3,1.1l-0.3,1.1l-0.6,12.9l-1.3,46.2L790.7,605.3z"/>
	<polygon class="st15" points="808,557.9 814.9,554.3 848.6,554.8 848.2,559.5 846.4,561.6 809,561 	"/>
	<polygon class="st5" points="824.3,555.3 824.3,541.8 823.8,541.2 813.9,541.2 813.7,540.4 823.9,540.3 825.1,541.3 825.2,554.7 	
		"/>
	<path class="st5" d="M844.9,556.3l1.3-36.6H842c0,0-1.1-0.3-1.1-1.3c0-1.1,0.4-1.6,1.3-1.6c0.8,0,4.3-0.1,4.3-0.1l2.9-0.1
		c0,0,2.4-0.6,2.9-2.4s1.8,0.7,1.8,0.7s0.8,1.1,0.7,3.4c-0.2,2.3-1,4-1.5,4.6c-0.5,0.6-0.7-0.8-1.8-2.1c-1.1-1.3-2.3-1.2-2.3-1.2
		l-2.2,0.1l-1.3,36.3L844.9,556.3z"/>
	<polygon class="st5" points="810.8,557.5 810.6,546.4 809,546 809.3,544.1 811.5,543.3 811.8,541.3 812.7,541.2 813.5,543.4 
		820.6,543.6 822.4,544.2 822.5,546.7 824.8,546.8 824.4,547.6 822.3,547.4 822,555.1 820.2,555.3 820.8,547.7 820.6,545.2 
		813.6,544.6 812.4,544.8 811.5,545.8 811.5,557 	"/>
	<polygon class="st5" points="812.6,556.3 812.4,543.6 813.5,543.4 813.5,555.7 	"/>
	<polygon class="st5" points="813.1,546.3 816.3,546.5 821,546.8 820.8,547.7 813.3,547.3 	"/>
	<path class="st5" d="M816.3,526.8l-0.3,20.6c0,0,0.8,0.9,0.9,0c0.1-0.9,0.6-20.7,0.6-20.7L816.3,526.8z"/>
	<polygon class="st5" points="821,544.2 821.3,520.5 819.9,520.6 818.8,515.6 821.2,514.4 823.9,515.7 823.2,520.7 822.3,520.4 
		821.9,544.7 	"/>
	<path class="st9" d="M823.8,555.2c0,0,1.2-10.9,2.3-13.1c1.2-2.2,2.8-4.1,2.8-4.1s-0.7-2.8,0.9-4c1.6-1.3,4.7-1.2,4.7-1.2
		s1.6-0.3,2.3,0.6c0.8,0.8,1.8,4.1,1.8,4.1l-6.4,5.8l-1.5,8.2l0.2,3.4L823.8,555.2z"/>
	<path class="st2" d="M875.7,605.7c0,0-10.4-0.8-17.4-1.5l0.2-8.7l-1-23L853,567l-6-4l-0.8,0l0.2-1.4L809,561l0.1-3.5l0.8-21.6
		l0.3-6.6l0.9-1.3l8.6-0.5l14.4,2l0.1,2.3l5.6-0.3l0.3-1.6l0.3,2.6h1.1l0.4-4.1l-5.9-0.5l-16-1.8c0,0-7.3-0.9-9.3-0.8
		s-2.4,2.9-2.4,2.9l-0.4,7.5l-0.9,21.9l-0.8,2l1.1,1l-0.1,4l-4.3,1.9l-5.5,6l0.3,22.2c-1.7,0.1-3,0.3-3,0.3s-3.3,0.5-3.3,2.3
		s2,1.7,2,1.7l4.4,0.4l0.1,7.6c0,0-0.8,23.4-1.8,54.2l-11.8-0.5l-2.7,0.7l-0.7,16.2l0.5,1.5l10.2,0.7l1.8,1.8l2,0.1
		c-1.8,54.3-4,118.9-4,122.4L791,983l66.5-0.5l-0.5-201l-0.5-96l1.7-77.4l15.1,1.2h2.7l1-2.3L875.7,605.7z M794.6,597.8l-1.4-1.1
		l4.5-1l0.1,2.5L794.6,597.8z M782.8,662.2c0,0,9.5,2.5,10.7,2.5s0.3,3,0.3,3s-3.8-1.2-6.5-1.2c-2.7,0-4.5,0.5-4.5,0.5V662.2z
		 M793.8,673.8h-11.5v-5.2l11.8,2.2L793.8,673.8z"/>
	<polygon class="st5" points="861.3,607.3 860.3,613.3 862,616 863.3,620.3 861.7,728 861.3,862.3 865,862.3 866.7,620 866.3,612 
		865,612 864.3,608.3 	"/>
	<path class="st5" d="M852,647l8.8,1.5c0,0,5,0,6.8,2.3s2,8,2,8L868,725c0,0-0.3,7.8,1,11.3s2,6.3,3.5,7.5s0.5,4,0.5,4l-4.8-3
		l-4-8.5l-1.3-11.5l2-66.5l-1.8-5l-3.5-1.3l-6-1.3L852,647z"/>
	<path class="st5" d="M794.5,741.3c0,0-3,1-3,2.3s1,2.3,3,3s20.3,0.8,20.3,0.8H836l6.8,1l16,0.8l12.5,0.8l5,1.3c0,0,1.8-0.5,2.8-1.3
		s1-3.3,1-3.3s-3-2-4-2s-18.5-1.3-18.5-1.3l-20.3-0.8l-18.5-0.8L794.5,741.3z"/>
	<path class="st5" d="M856.8,676l7.3,1.3c0,0,0.5,2-0.5,2.3s-7.3,0.5-7.3,0.5L856.8,676z"/>
	<polygon class="st5" points="857,718.3 856.8,722.8 869.8,722.5 	"/>
	<path class="st5" d="M378.5,672l-2.8-0.2l-43-45.4c0,1.7-0.1,3.4-0.1,5.1c8.7,8.6,31.8,32.6,38.9,40l-39.7-2.4
		c-0.1,2.3-0.1,4.6-0.2,6.8l45.2,2.2l1-4.3l1.3-0.3L378.5,672z"/>
	<g>
		<g>
			<path class="st5" d="M403,446.3c0,0-69-4.3-69.8-4.8l-1.3,1.3l67.8,4.8l0.1,5.8l-74.6-4.3l-0.3,1.5l74.9,4.3l0.1,6.8l-72.2-2.9
				l-0.3,6.3l71.8,3.8l-2.4,7.5l-65.6-3.5v1.8l65.2,3.2l-17.5,55.2l-2.7-0.2l-47.5-46.5l-1.5,1.5l46,44.8l-41.4-2.7
				c0.3,2.6,0.5,5.3,0.7,8l60.9,3.3l0.8-4.5l1.3-2.8l-14.9-1l20.9-64.3l0.3-4.8h1l0.3-2.3l-1.3-0.1l-0.2-6.8l1,0.1l0.5-1.5l-1.5-0.1
				l-0.2-5.8l1.7,0.1V446.3z"/>
			<line class="st5" x1="329.5" y1="537.8" x2="332.6" y2="537.9"/>
			<line class="st5" x1="331.9" y1="529.9" x2="330" y2="529.8"/>
		</g>
		<path class="st12" d="M390.7,590.6l-0.2-6.1l-57-2.9c0,2.2-0.1,4.5-0.1,6.9L390.7,590.6z"/>
		<path class="st12" d="M391,599.4l-0.2-7.5l-57.3-2c0,2.6-0.1,5.3-0.2,8.1L391,599.4z"/>
		<path class="st5" d="M394,584.8v-1.3l-60.4-3.3c0,0.5,0,1,0,1.5l57,2.9l0.2,6.1l-57.3-2c0,0.4,0,0.8,0,1.3l57.3,2l0.2,7.5
			l-57.7-1.5c0,2.3-0.1,4.6-0.1,7l60.9,2.6l-0.3-8l-1.8,0v-7.5l2,0.1v-1.3l-2-0.1v-6L394,584.8z"/>
	</g>
	<path class="st5" d="M166.3,854.3l6-397.8c0,0-1.5-3.3,1.3-3s1.5,2.8,1.5,2.8l-3.8,397.3L166.3,854.3z"/>
	<polygon class="st5" points="115.5,578.3 175,523.3 173.5,521.8 105.5,583.8 108,584.3 	"/>
	<path class="st5" d="M112.8,645.3l60-43l-1.5-1.5l-66.5,47.5c-1.1,0.8-0.8,2.6,0.5,3l0,0L112.8,645.3z"/>
	<path class="st5" d="M111.3,711.3l60-43l-1.5-1.5l-66.5,47.5c-1.1,0.8-0.8,2.6,0.5,3l0,0L111.3,711.3z"/>
	<path class="st5" d="M151.8,712.2l-54.4-49.9l-1.2,1.8l60.1,55.3c1,0.9,2.7,0.3,2.8-1.1l0,0L151.8,712.2z"/>
	<path class="st5" d="M156.8,648.6l-49.5-43.9l-1.2,1.8l55.2,49.3c1,0.9,2.7,0.3,2.8-1.1l0,0L156.8,648.6z"/>
	<path class="st5" d="M111,775.5l60-43l-1.5-1.5L103,778.5c-1.1,0.8-0.8,2.6,0.5,3l0,0L111,775.5z"/>
	<linearGradient id="SVGID_1_" gradientUnits="userSpaceOnUse" x1="145.6667" y1="101.6667" x2="478.3333" y2="101.6667">
		<stop  offset="0" style="stop-color:#FF6969"/>
		<stop  offset="1" style="stop-color:#006969"/>
	</linearGradient>
	<rect x="145.7" y="87" class="st16" width="332.7" height="29.3"/>
	<rect x="147" y="123.7" class="st5" width="28" height="24"/>
	<rect x="219" y="123.7" class="st4" width="28" height="24"/>
	<rect x="106" y="157.7" class="st4" width="28" height="24"/>
	<rect x="361" y="123" class="st17" width="28" height="24"/>
	<rect x="292.3" y="123" class="st18" width="28" height="24"/>
	<rect x="449" y="123" class="st19" width="28" height="24"/>
	<path class="st5" d="M825.7,999c1-3-1-12-1-12l2.3-366.3l0.7-24.3l2-4.3l1-16.3l0.7-21l-0.3-8l0.3-8.3c0,0,0-4,1.7-4.3
		s3-1.3,4.7,0.3c1.7,1.7,1.7,10,1.7,10l-1.7,47.3l-2.7,5.7l-1.3,33.7l-3.3,373.3L825.7,999z"/>
	<rect x="145" y="157" class="st5" width="26" height="30"/>
	<rect x="187" y="161" class="st2" width="32" height="28"/>
	<rect x="234" y="163" class="st20" width="33" height="23"/>
	<path class="st5" d="M186,585c0,0,16.7-2,21.7-2s25-1.7,34.7-1.3c9.7,0.3,24.7-0.3,38.7,0c14,0.3,21,1,21,1l-1.3,2.3l-19.3-0.7
		l-39,0.3l-35,1l-21.7,2.3L186,585z"/>
	<ellipse class="st5" cx="316" cy="523.7" rx="6.8" ry="8.7"/>
	<path class="st5" d="M337.2,528c1.6,0.2,2.6,0.3,2.6,0.3l0.3-0.3c0,0-1.1-0.1-2.9-0.4l0,0h-0.3c-7.8-1-27.7-3.5-39.1-4.3
		c-14.3-1-39,0-48.3,0s-46.3,2.3-49,3c-2.7,0.7-19.5,4.8-19.5,4.8l0.2,1.2c0,0,12.8-3.9,19.5-5.2c5.6-1.1,25.2-1.9,40.6-2.5l0.2,8.2
		c-14.3,0.6-38.7,2.2-40.9,2.8c-2.7,0.7-19.5,4.8-19.5,4.8l0.2,1.2c0,0,12.8-3.9,19.5-5.2c5.7-1.1,25.4-1.9,40.8-2.5l0.1,6.3
		c-14.1,0.6-39.7,2.3-41.9,2.8c-2.7,0.7-19,5.7-19,5.7v2.7c0,0,12.7-4.3,19.3-5.7c6.7-1.3,33-1.7,48.7-2.3c15.7-0.7,34.3-0.7,48,0
		c13.7,0.7,42.7,4,42.7,4v-2.7c0,0-1-0.1-2.6-0.3l0.2-7.1c1.8,0.2,2.9,0.3,2.9,0.3l0.3-0.3c0,0-1.2-0.2-3.2-0.4L337.2,528z
		 M336.1,536.8c-3.9-0.5-10.1-1.3-16.8-2l0.3-8.6c6.7,0.7,12.8,1.3,16.6,1.7L336.1,536.8z M297.2,524.3c5.7,0.3,14.1,1,21.9,1.8
		h-0.5l-0.1,8.5c-7.1-0.8-14.6-1.6-20.1-2v-8.2h-1l0.2,8.2c-6.7-0.4-15.6-0.5-24.1-0.4v-8.4C281.9,523.8,290.2,524,297.2,524.3z
		 M318.5,535.3l-0.1,6.8c-7-0.8-14.4-1.6-20.1-2v-6.5C303.9,534,311.4,534.6,318.5,535.3z M242.3,524.6c2.4-0.1,4.8-0.2,6.9-0.3
		c7.3-0.3,15.3-0.5,23.2-0.5l0.2,8.4c-9.4,0.1-18.2,0.4-23,0.4c-1.7,0-4.2,0.1-7.3,0.2V524.6z M242.3,540.2v-6.3
		c2.4-0.1,4.8-0.2,6.9-0.3c7.4-0.3,15.5-0.5,23.3-0.5l0.1,6.5c-9.8,0.1-19,0.4-24,0.4C247.2,540,244.9,540.1,242.3,540.2z
		 M273.4,539.6v-6.5c8.5,0,16.8,0.2,23.8,0.5c0.1,0,0.2,0,0.3,0l0.1,6.4c-0.2,0-0.4,0-0.6,0C290.5,539.5,281.8,539.5,273.4,539.6z
		 M336,544.2c-3.7-0.5-10-1.3-16.9-2l0.2-6.8c6.7,0.7,13,1.3,16.8,1.8L336,544.2z"/>
	<path class="st5" d="M331.3,488l0.3-18.3l-1.3-0.3l-0.3,16.2c0,0-20.5-4.5-37-4.7c-16.5-0.2-51.7-0.2-51.7-0.2l-0.2,3
		c0,0,41.3-0.3,51.7,0.5c4.4,0.4,12.3,0.4,19.7,1.2C322.3,486.3,331.3,488,331.3,488z"/>
	<path class="st5" d="M241.3,480.7c0,0-47.2,5.3-47.2,6c0,0.7,0.3,3.7,0.3,3.7l46.7-6.7L241.3,480.7z"/>
	<path class="st4" d="M448,868.7l-0.7-70.7c0,0,2-13-11-21.3c-13-8.3-27.3-7.3-27.3-7.3s-11.3-2.3-22.7,4.3c-11.3,6.7-12,19-12,19
		v93.7l72.3,2L448,868.7z"/>
	<path class="st4" d="M522,872.3l-0.7-70.7c0,0,2-13-11-21.3c-13-8.3-27.3-7.3-27.3-7.3s-11.3-2.3-22.7,4.3c-11.3,6.7-12,19-12,19
		V890l72.3,2L522,872.3z"/>
	<path class="st5" d="M194.8,472.5v15.8c0,0,2.5,2.3,1.5-0.3s-0.5-16.3-0.5-16.3L194.8,472.5z"/>
	<path class="st5" d="M324.3,468.3c0,0-13.5-2.8-23-3.5s-45.8-1.3-45.8-1.3l-21.8,0.5l-20.5,3.3l-21.5,5.8v1l21.8-5.3l20.5-3.3l21-1
		l46.3,1.5l22.8,3.5L324.3,468.3z"/>
	<polygon class="st5" points="252.8,481 252.5,464.5 254,464.5 254,481.5 	"/>
	<polygon class="st5" points="291.5,481.5 291.8,464.8 293.3,465.5 293,480.8 	"/>
	<polygon class="st5" points="210.8,484.8 211.5,443.3 217.3,441.3 218.8,447.8 215.5,449.3 215.5,444.8 212.8,444.8 212,485.8 	"/>
	<polygon class="st5" points="180,519.3 174,831.5 176.5,831.8 182.8,518.3 	"/>
</g>
</svg>
